<?xml version="1.0" encoding="UTF-8"?>
<svg width="40px" height="40px" viewBox="0 0 40 40" version="1.1" xmlns="http://www.w3.org/2000/svg" xmlns:xlink="http://www.w3.org/1999/xlink">
    <!-- Generator: Sketch 54.1 (76490) - https://sketchapp.com -->
    <title>noun_Breakfast_1859966</title>
    <desc>Created with Sketch.</desc>
    <g id="My-Plan---Desktop-+-Mobile" stroke="none" stroke-width="1" fill="none" fill-rule="evenodd">
        <g id="Day-Plan--Mealplan-only-TAB-3" transform="translate(-407.000000, -374.000000)" fill="#000000" fill-rule="nonzero">
            <g id="Group-8" transform="translate(150.000000, 366.000000)">
                <g id="Group-3" transform="translate(247.000000, 0.000000)">
                    <g id="Group-2-Copy">
                        <g id="Group-5" transform="translate(10.000000, 8.000000)">
                            <g id="noun_Breakfast_1859966">
                                <path d="M31.7816311,9.39429307 C31.7592417,9.26686356 31.6868331,9.15348707 31.5810785,9.07917302 C31.4748476,9.00485898 31.3443217,8.97603849 31.216654,8.9981898 L26.5753621,9.81421498 C26.3100229,9.86089941 26.1328125,10.1136147 26.1790206,10.3789539 C26.3490854,11.3457508 26.6825458,11.8104516 26.97742,12.2206079 C27.2446647,12.5928925 27.4757051,12.9144436 27.6067074,13.6613948 C27.738186,14.4088224 27.6310024,14.78992 27.5066693,15.2312786 C27.3694742,15.7174161 27.2141769,16.2681021 27.3842417,17.2351372 C27.5543065,18.2016959 27.8882432,18.6666349 28.1826411,19.0767912 C28.4498858,19.449314 28.6809262,19.7711033 28.8119285,20.5190073 C28.9438835,21.266673 28.8362235,21.6480088 28.7118904,22.0896056 C28.5751717,22.575505 28.4203508,23.1264292 28.5899392,24.0934642 C28.760004,25.0602611 29.0939407,25.5252001 29.3883386,25.9353564 C29.6560596,26.3078793 29.8866237,26.6296685 30.0181023,27.3775725 C30.060023,27.6143294 30.2658157,27.7808214 30.4982852,27.7808214 C30.5263912,27.7808214 30.5544971,27.7784395 30.5830794,27.7734376 L35.2243713,26.9576506 C35.352039,26.9352612 35.4654155,26.8630908 35.5397296,26.7573362 C35.6135672,26.6513435 35.6431023,26.520103 35.6207128,26.3926735 C35.450648,25.4258766 35.1167113,24.9609376 34.8223134,24.5505432 C34.5545923,24.1780203 34.3240283,23.8562311 34.1925497,23.1083271 C34.0605946,22.3606613 34.1682547,21.9793256 34.2925878,21.5377287 C34.4293065,21.0518293 34.5841274,20.5009052 34.414539,19.5341083 C34.2444742,18.5673114 33.9110138,18.1023724 33.616616,17.6922161 C33.3488949,17.3196933 33.1183309,16.997904 32.9868522,16.2502382 C32.8548972,15.5025725 32.9625573,15.1212367 33.0868903,14.6798781 C33.2236091,14.1939787 33.3789063,13.6432927 33.209318,12.6764959 C33.0392532,11.7101754 32.7053164,11.2454745 32.4109185,10.8355564 C32.1436738,10.4630336 31.9126334,10.1414825 31.7816311,9.39429307 Z M30.1810214,25.3665682 C29.9133003,24.9940453 29.6827363,24.6722561 29.5512577,23.9243521 C29.4193026,23.1766863 29.5269627,22.7953506 29.6512958,22.3537538 C29.7880145,21.8678543 29.9428354,21.3169302 29.773247,20.3501333 C29.6031822,19.3830982 29.2697218,18.9181592 28.975324,18.508003 C28.7076029,18.1354801 28.4770389,17.8136909 28.3455602,17.0660251 C28.2136052,16.3183593 28.3212653,15.9372618 28.4455983,15.4959031 C28.5823171,15.0100037 28.7376143,14.4593178 28.568026,13.4925209 C28.3979612,12.5262004 28.0640244,12.0614995 27.7696265,11.6515815 C27.5671684,11.3693311 27.3856707,11.1166158 27.2522866,10.6857373 L28.6035454,10.448117 C28.7854897,11.1299541 29.0591952,11.5143268 29.3059261,11.8564214 C29.5726944,12.2253715 29.802782,12.5438261 29.9328316,13.2843463 C30.0633575,14.025581 29.9556974,14.4035822 29.830888,14.8416062 C29.6932164,15.3251237 29.5374428,15.8729515 29.7060785,16.83427 C29.8751905,17.796065 30.2086509,18.2581458 30.5030488,18.665682 C30.7698171,19.0348702 30.9999047,19.3535631 31.1299542,20.0943215 C31.2604801,20.8355562 31.1528201,21.2137956 31.0280106,21.6515814 C30.8908155,22.1353371 30.7345655,22.683403 30.9036776,23.6449598 C31.0727896,24.6065166 31.40625,25.0685974 31.7006479,25.4761336 C31.9110256,25.7677923 32.0979123,26.0314344 32.231624,26.4932175 L30.8727134,26.7320882 C30.690263,26.075886 30.4225419,25.7026486 30.1810214,25.3665682 Z M33.4532203,19.7029821 C33.5851753,20.4506479 33.4775153,20.8319836 33.3531822,21.2735804 C33.2164635,21.7594799 33.0616426,22.310404 33.231231,23.2774391 C33.4012958,24.244236 33.7352325,24.709175 34.0296304,25.1195694 C34.2320885,25.4018198 34.4140625,25.6547733 34.5474467,26.0861281 L33.1965154,26.3235995 C33.0146901,25.6351825 32.7397342,25.2489341 32.4914253,24.905202 C32.2251334,24.5360138 31.9950458,24.2170828 31.8649962,23.4760862 C31.7344703,22.7348515 31.8421303,22.3566121 31.9664634,21.9185881 C32.1041349,21.4350706 32.2599085,20.8870046 32.0907965,19.9254479 C31.9216844,18.9641293 31.5882241,18.5020484 31.2943026,18.0945122 C31.0275343,17.725324 30.7974466,17.4066312 30.6673971,16.6656346 C30.5368712,15.924638 30.6445313,15.5466369 30.7693407,15.1086129 C30.9070122,14.6250954 31.0627859,14.0772676 30.8941502,13.1154726 C30.7250381,12.1543922 30.3911014,11.6925496 30.0971799,11.2850134 C29.887874,10.9955579 29.7019698,10.7340595 29.5684368,10.2784395 L30.9270199,10.0395389 C31.1094703,10.6955031 31.3771914,11.0682641 31.618712,11.4045827 C31.8859566,11.7768674 32.116997,12.0984185 32.2479993,12.8453697 C32.379478,13.5927973 32.2722943,13.9738949 32.1479612,14.4152535 C32.0107661,14.901391 31.8554688,15.4523152 32.0255336,16.4193502 C32.1955984,17.3859089 32.5295351,17.850848 32.823933,18.2610042 C33.0911776,18.6335271 33.322218,18.9553163 33.4532203,19.7029821 Z" id="Shape"></path>
                                <path d="M13.2602897,20.9341654 L14.6057129,18.7429438 C14.7447242,18.7813513 14.8867426,18.80383 15.0290587,18.80383 C15.4396914,18.80383 15.8479421,18.6447218 16.1580602,18.3341273 L16.1663967,18.3257908 C16.1672006,18.324987 16.1682129,18.324451 16.1690168,18.3236472 C16.1690168,18.323409 16.1690168,18.323409 16.1690168,18.323409 L18.819074,15.6731136 C19.2371499,15.2550377 19.3801806,14.6602873 19.2301829,14.1193372 L21.419112,12.7751048 C22.0937143,12.3608994 22.468619,11.6157048 22.4474204,10.8580948 L26.14758,9.26614902 C26.3919588,9.16110902 26.5067644,8.87933498 26.4057736,8.63305068 C25.7226562,6.96765434 24.683689,5.97942073 23.4808498,5.85032395 C23.1688262,5.81650156 22.8286966,5.85437312 22.4733231,5.9632241 L20.7398949,6.49363449 L20.4415968,5.79911395 C20.2558117,5.36704459 19.9023437,5.02905868 19.391673,4.79444551 C18.532298,4.39953317 17.5019055,4.46598707 16.6339558,4.97213224 L13.9102396,6.56086249 C13.7473203,6.4086021 13.5501024,6.28084512 13.2998284,6.17330415 C12.3809069,5.77845137 11.3173768,5.8661038 10.4431747,6.35902966 C10.4220655,6.3707901 10.4024449,6.38564693 10.3815441,6.39788376 C10.2726633,6.46243215 10.1651223,6.52909444 10.0632681,6.60644537 C9.99633785,6.6567919 9.93488585,6.71598112 9.87120088,6.771806 C9.82142,6.81592995 9.76776863,6.8542481 9.72036961,6.90167693 L9.70786483,6.91418171 C9.70670366,6.91534288 9.7053341,6.91623605 9.70417293,6.91739722 L7.38662337,9.23518493 C7.32859532,9.29321298 7.28077946,9.35826751 7.22769376,9.41980883 C7.1827659,9.47238839 7.13364005,9.52225859 7.09237434,9.57704137 C7.01216522,9.68261732 6.94267444,9.79393946 6.87622059,9.90698849 C6.86636566,9.92395922 6.85430746,9.93979859 6.84475024,9.95691824 C6.35137776,10.8311501 6.26342761,11.8946207 6.65825063,12.8146438 C6.76549385,13.0647986 6.89319132,13.2620761 7.04551127,13.4250847 L5.45684059,16.1492475 C4.95093356,17.016959 4.88471785,18.0478279 5.27915385,18.9064883 C5.51400522,19.4173973 5.85222932,19.7706271 6.28429868,19.9566503 L6.97849171,20.2548591 L6.44817073,21.9886147 C6.33955795,22.34375 6.3014482,22.6824505 6.33527059,22.9951887 C6.46436737,24.1987424 7.45236283,25.2377097 9.11775917,25.9210652 C9.17873478,25.9458365 9.24113951,25.9575077 9.30306785,25.9575077 C9.49218751,25.9575077 9.67177976,25.8469894 9.75133385,25.6626334 L11.344798,21.9596751 C11.3643591,21.960211 11.3838605,21.9655107 11.4033918,21.9655107 C12.1398628,21.9655107 12.8568026,21.590606 13.2602897,20.9341654 Z M7.89282824,10.1378799 C7.95419093,10.058564 8.01978137,9.9816299 8.09213034,9.90925112 L10.3966094,7.60501024 C10.8445777,7.158352 11.4354576,6.91882624 12.0393483,6.91882624 C12.2765815,6.91882624 12.5161966,6.95574507 12.7496189,7.03172639 C13.0459222,7.1284299 13.2169398,7.23204078 13.3217416,7.37923971 L18.1850229,14.1925496 C18.3622332,14.4412157 18.3346037,14.7780107 18.1183308,14.9938072 L18.1183308,14.9940454 L15.478456,17.6341582 C15.2621832,17.8490616 14.925418,17.8775843 14.6774961,17.7000762 L7.8639482,12.8370332 C7.71674927,12.731755 7.61337654,12.5607375 7.51714941,12.2646723 C7.28131551,11.5401403 7.42053522,10.7589797 7.87666137,10.1566371 C7.88166327,10.1501465 7.88773698,10.1443407 7.89282824,10.1378799 Z M22.7591463,6.89596039 C22.9868521,6.8261719 23.195503,6.8009242 23.3765244,6.82021727 C24.3025915,6.91977902 24.9366425,7.82417117 25.3058308,8.56635863 L22.2033691,9.90103376 L21.1271854,7.39531727 L22.7591463,6.89596039 Z M17.1255717,5.81483424 C17.7191311,5.4689882 18.4127287,5.41849278 18.984375,5.68097371 C19.2768674,5.81554878 19.4555069,5.97537156 19.5450648,6.18426068 L21.3800496,10.4566025 C21.6125191,10.9968083 21.4095847,11.6360995 20.9084414,11.9438358 L18.7450875,13.2723478 L14.5108852,7.33996878 L17.1255717,5.81483424 Z M6.16568215,18.4991901 C5.90367756,17.9287347 5.95369663,17.2341844 6.30001902,16.6408632 L7.82497498,14.0259384 L13.7568776,18.2602301 L12.4290206,20.4234947 C12.1212843,20.924638 11.4810404,21.1275724 10.941311,20.8953411 L6.66968371,19.0603563 C6.46055639,18.970322 6.30049541,18.7921589 6.16568215,18.4991901 Z M9.05106707,24.8208841 C8.30935595,24.4516959 7.40472561,23.8176448 7.30516385,22.8908632 C7.28563259,22.7098418 7.31088034,22.5023819 7.38090698,22.2741997 L7.88005546,20.6421494 L10.3859506,21.7186309 L9.05106707,24.8208841 Z" id="Shape"></path>
                                <path d="M20.0085747,0.00238185366 C14.7942073,0.00238185366 9.89233995,2.03291732 6.20522102,5.7200362 C2.5181021,9.40715507 0.487328488,14.3092607 0.487328488,19.523628 C0.487328488,24.7382336 2.5181021,29.6403392 6.20522102,33.3274581 C9.89233995,37.014577 14.7942073,39.0451124 20.0085747,39.0451124 C25.222942,39.0451124 30.1252858,37.014577 33.8124047,33.3274581 C37.4995237,29.6403392 39.5302973,24.7382336 39.5302973,19.523628 C39.5302973,14.3092607 37.4995237,9.40715512 33.8124047,5.7200362 C30.1252858,2.03291727 25.222942,0.00238185366 20.0085747,0.00238185366 Z M33.1226181,32.6376715 C29.6198552,36.1404345 24.9623666,38.0695027 20.0085747,38.0695027 C15.0547827,38.0695027 10.3977706,36.1404345 6.89500761,32.6376715 C3.39224463,29.1349085 1.46293824,24.47742 1.46293824,19.523628 C1.46293824,14.5700743 3.39224463,9.91258576 6.89500761,6.40982278 C10.3977706,2.9070598 15.0547828,0.97799161 20.0085747,0.97799161 C24.9623666,0.97799161 29.6198552,2.9070598 33.1226181,6.40982278 C36.6253811,9.91258576 38.5546875,14.5700743 38.5546875,19.523628 C38.5546875,24.47742 36.6253811,29.1349085 33.1226181,32.6376715 Z" id="Shape"></path>
                                <path d="M24.1925496,23.2529059 L24.0415397,23.2371856 C23.2831555,23.1585842 22.6124238,22.7117473 22.2470465,22.0424447 L22.174638,21.9092987 C21.5705984,20.8012576 20.4115854,20.1493425 19.1501525,20.1962652 C17.8887196,20.2479515 16.7873476,20.99657 16.2752478,22.1505811 L16.2137958,22.2889672 C15.9046303,22.9861375 15.2724848,23.4860899 14.5231517,23.6263814 L14.3735709,23.6542492 C13.1330983,23.8867187 12.150343,24.7861089 11.8097371,26.001572 C11.4691311,27.2167968 11.8407013,28.4958555 12.7801067,29.3395102 C13.4184452,29.9125857 13.733327,30.762195 13.6232851,31.6122808 C13.4603659,32.8641862 14.012481,34.0763147 15.0628811,34.7761051 C15.6178544,35.1455315 16.2514291,35.3315548 16.8864329,35.3315548 C17.4533156,35.3315548 18.0216273,35.1834031 18.5365854,34.8849561 L18.6685404,34.8087366 C19.3292683,34.4269245 20.1343369,34.3940548 20.822218,34.7206078 L20.9594131,34.7858707 C22.100324,35.3275057 23.4232088,35.1767339 24.4131098,34.3938166 C25.4030107,33.6108994 25.8541349,32.3575647 25.5902248,31.1225704 L25.5583079,30.9751333 C25.3991997,30.229373 25.6169017,29.4531249 26.139958,28.8995807 L26.2447599,28.7890624 C27.1117569,27.87157 27.3780488,26.5665491 26.9388339,25.383003 C26.5000953,24.1994569 25.4477897,23.3831936 24.1925496,23.2529059 Z M25.5363948,28.1183308 L25.431593,28.2288491 C24.6870236,29.0162919 24.3778582,30.119093 24.6046113,31.1797351 L24.6365282,31.3271722 C24.8246951,32.2089367 24.5150534,33.0692645 23.8081174,33.6287633 C23.1002286,34.1877858 22.1922637,34.2909203 21.378144,33.9048209 L21.2409489,33.8395579 C20.2610518,33.3748571 19.1172828,33.4210651 18.1802591,33.9643674 L18.0483041,34.0405869 C17.2670541,34.4921875 16.3533727,34.4631288 15.6035632,33.9641292 C14.8532774,33.4641768 14.4745617,32.6321932 14.5903201,31.738043 C14.7422827,30.5690262 14.3092606,29.4012004 13.4317835,28.6135194 C12.7610518,28.0111471 12.5057164,27.1329554 12.7491425,26.2647675 C12.9925685,25.3965796 13.6671112,24.7792016 14.5531631,24.613186 L14.7022675,24.5853182 C15.7674352,24.3859565 16.6658727,23.6754478 17.105564,22.6845941 L17.167016,22.546208 C17.5328697,21.7218464 18.288872,21.2078411 19.1901677,21.1711604 C19.22399,21.1697313 19.2582888,21.1690167 19.2921113,21.1690167 C20.1505335,21.1690167 20.9027248,21.6151391 21.3181212,22.3763815 L21.3905297,22.5095274 C21.9097751,23.4608422 22.8629954,24.0956078 23.9405488,24.2075552 L24.0915587,24.2232755 C24.9885671,24.3164062 25.7107469,24.8766197 26.0241997,25.7219417 C26.3376524,26.5675019 26.155202,27.4635576 25.5363948,28.1183308 Z" id="Shape"></path>
                                <path d="M18.3303163,24.825886 C16.5129573,25.4997142 15.5830793,27.5262004 16.2566692,29.3433213 C16.7816311,30.7590987 18.1273818,31.6365759 19.5560213,31.6365759 C19.9609375,31.6365759 20.3729992,31.5660728 20.7741044,31.4172066 C22.5914634,30.7433784 23.5213414,28.7168922 22.8477515,26.8997714 C22.1736852,25.0828887 20.148628,24.152058 18.3303163,24.825886 Z M20.4349276,30.5025724 C19.1215701,30.9891863 17.6576791,30.3167873 17.1713034,29.0041444 C16.6844512,27.6915015 17.356612,26.2273723 18.6694932,25.7405202 C19.983327,25.2539062 21.4462653,25.9263053 21.9331174,27.2389481 C22.4199696,28.551591 21.7478087,30.0157203 20.4349276,30.5025724 Z" id="Shape"></path>
                                <path d="M19.0539253,26.777582 C18.7018864,26.9078697 18.4217798,27.1677306 18.2655298,27.5088129 C18.1088034,27.8501334 18.0945122,28.2317073 18.2250381,28.5837462 C18.2979231,28.7804878 18.4841845,28.9022008 18.6823552,28.9022008 C18.7385671,28.9022008 18.7962081,28.892197 18.8519436,28.8714748 C19.1044207,28.7778678 19.2335176,28.4970465 19.1396723,28.2445694 C19.0996571,28.1369093 19.1039444,28.0201982 19.152058,27.9158727 C19.2001715,27.8115473 19.2854421,27.7322314 19.3931021,27.6922161 C19.6455793,27.598609 19.7746761,27.318026 19.6808308,27.0653106 C19.5869856,26.8125953 19.305926,26.6832603 19.0539253,26.777582 Z" id="Path"></path>
                            </g>
                        </g>
                    </g>
                </g>
            </g>
        </g>
    </g>
</svg>