<svg xmlns="http://www.w3.org/2000/svg" xmlns:xlink="http://www.w3.org/1999/xlink" width="27" height="27" version="1.1" viewBox="0 0 27 27"><title>12 week-icon</title><desc>Created with Sketch.</desc><g id="Week-Plan-Meal" fill="#418AD0" stroke="#418AD0" transform="translate(-284.000000, -1269.000000)"><g id="Group-13" transform="translate(285.000000, 1270.000000)"><g id="Group-12-Copy"><g id="12-week-icon"><path id="Shape" stroke-width=".5" d="M18.4909483,1.93965517 C18.2905172,0.957327586 17.4202586,0.215517241 16.3793103,0.215517241 C16.1409483,0.215517241 15.9482759,0.408189655 15.9482759,0.646551724 C15.9482759,0.884913793 16.1409483,1.07758621 16.3793103,1.07758621 C17.0922414,1.07758621 17.6724138,1.65775862 17.6724138,2.37068966 C17.6724138,3.08362069 17.0922414,3.6637931 16.3793103,3.6637931 C16.1409483,3.6637931 15.9482759,3.85646552 15.9482759,4.09482759 C15.9482759,4.33318966 16.1409483,4.52586207 16.3793103,4.52586207 C17.4198276,4.52586207 18.2905172,3.78405172 18.4909483,2.80172414 L24.137931,2.80172414 L24.137931,6.68103448 L0.862068966,6.68103448 L0.862068966,2.80172414 L6.89655172,2.80172414 L8.18965517,2.80172414 C8.42801724,2.80172414 8.62068966,2.60905172 8.62068966,2.37068966 C8.62068966,2.13232759 8.42801724,1.93965517 8.18965517,1.93965517 L7.40689655,1.93965517 C7.58534483,1.4387931 8.05948276,1.07758621 8.62068966,1.07758621 C9.33362069,1.07758621 9.9137931,1.65775862 9.9137931,2.37068966 C9.9137931,3.08362069 9.33362069,3.6637931 8.62068966,3.6637931 C8.38232759,3.6637931 8.18965517,3.85646552 8.18965517,4.09482759 C8.18965517,4.33318966 8.38232759,4.52586207 8.62068966,4.52586207 C9.80905172,4.52586207 10.7758621,3.55905172 10.7758621,2.37068966 C10.7758621,1.18232759 9.80905172,0.215517241 8.62068966,0.215517241 C7.58017241,0.215517241 6.70948276,0.957327586 6.50905172,1.93965517 L0,1.93965517 L0,7.54310345 L0,24.7844828 L25,24.7844828 L25,7.54310345 L25,1.93965517 L18.4909483,1.93965517 Z M24.137931,23.9224138 L0.862068966,23.9224138 L0.862068966,7.54310345 L24.137931,7.54310345 L24.137931,23.9224138 Z"/><path id="Shape" stroke-width=".5" d="M11.2068966,1.07758621 C11.9198276,1.07758621 12.5,1.65775862 12.5,2.37068966 C12.5,3.08362069 11.9198276,3.6637931 11.2068966,3.6637931 C10.9685345,3.6637931 10.7758621,3.85646552 10.7758621,4.09482759 C10.7758621,4.33318966 10.9685345,4.52586207 11.2068966,4.52586207 C12.3952586,4.52586207 13.362069,3.55905172 13.362069,2.37068966 C13.362069,1.18232759 12.3952586,0.215517241 11.2068966,0.215517241 C10.9685345,0.215517241 10.7758621,0.408189655 10.7758621,0.646551724 C10.7758621,0.884913793 10.9685345,1.07758621 11.2068966,1.07758621 Z"/><path id="Shape" stroke-width=".5" d="M13.7931034,1.07758621 C14.5060345,1.07758621 15.0862069,1.65775862 15.0862069,2.37068966 C15.0862069,3.08362069 14.5060345,3.6637931 13.7931034,3.6637931 C13.5547414,3.6637931 13.362069,3.85646552 13.362069,4.09482759 C13.362069,4.33318966 13.5547414,4.52586207 13.7931034,4.52586207 C14.9814655,4.52586207 15.9482759,3.55905172 15.9482759,2.37068966 C15.9482759,1.18232759 14.9814655,0.215517241 13.7931034,0.215517241 C13.5547414,0.215517241 13.362069,0.408189655 13.362069,0.646551724 C13.362069,0.884913793 13.5547414,1.07758621 13.7931034,1.07758621 Z"/><circle id="Oval" cx="9.483" cy="10.56" r="1" opacity=".508"/><circle id="Oval" cx="12.5" cy="10.56" r="1" opacity=".508"/><circle id="Oval" cx="15.517" cy="10.56" r="1" opacity=".508"/><circle id="Oval" cx="18.534" cy="10.56" r="1" opacity=".508"/><circle id="Oval" cx="21.552" cy="10.56" r="1"/><circle id="Oval" cx="3.448" cy="14.009" r="1"/><circle id="Oval" cx="6.466" cy="14.009" r="1"/><circle id="Oval" cx="9.483" cy="14.009" r="1"/><circle id="Oval" cx="12.5" cy="14.009" r="1"/><circle id="Oval" cx="15.517" cy="14.009" r="1"/><circle id="Oval" cx="18.534" cy="14.009" r="1"/><circle id="Oval" cx="21.552" cy="14.009" r="1"/><circle id="Oval" cx="3.448" cy="17.026" r="1"/><circle id="Oval" cx="6.466" cy="17.026" r="1"/><circle id="Oval" cx="9.483" cy="17.026" r="1"/><circle id="Oval" cx="12.5" cy="17.026" r="1"/><circle id="Oval" cx="15.517" cy="17.026" r="1"/><circle id="Oval" cx="18.534" cy="17.026" r="1"/><circle id="Oval" cx="21.552" cy="17.026" r="1"/><circle id="Oval" cx="3.448" cy="20.474" r="1"/><circle id="Oval" cx="6.466" cy="20.474" r="1"/><circle id="Oval" cx="9.483" cy="20.474" r="1"/><circle id="Oval" cx="12.5" cy="20.474" r="1"/><circle id="Oval" cx="15.517" cy="20.474" r="1"/></g></g></g></g></svg>