<svg xmlns="http://www.w3.org/2000/svg" xmlns:xlink="http://www.w3.org/1999/xlink" width="24" height="26" version="1.1" viewBox="0 0 24 26"><title>Shape</title><desc>Created with Sketch.</desc><g id="My-Day-Plan-Download" fill-rule="nonzero" stroke="#418AD0" stroke-width="1.5" transform="translate(-890.000000, -1269.000000)"><g id="Group-12" transform="translate(891.000000, 1270.000000)"><path id="Shape" d="M9.81843907,14.9480395 L9.81843907,1.18712145 C9.81843907,0.532993306 10.3468581,0 10.9953724,0 C11.6438867,0 12.1723058,0.532993306 12.1723058,1.18712145 L12.1723058,14.9480395 L16.0633916,11.0232706 C16.5677916,10.6114122 17.3123821,10.6598661 17.720706,11.1686325 C18.1050107,11.6047179 18.0809917,12.283073 17.720706,12.7191584 L11.8120201,18.6547657 C11.3556582,19.1150781 10.6110677,19.1150781 10.1547057,18.6547657 L4.29405796,12.7191584 C3.86171509,12.2346191 3.90975319,11.483583 4.4141532,11.0474976 C4.84649607,10.6598661 5.49501038,10.6598661 5.95137229,11.0474976 C5.92735325,11.0232706 9.81843907,14.9480395 9.81843907,14.9480395 Z M4.43082205e-16,18.1666667 C4.43082205e-16,17.5238095 0.548752834,17 1.22222222,17 C1.89569161,17 2.44444444,17.5238095 2.44444444,18.1666667 L2.44444444,21.6666667 L19.5555556,21.6666667 L19.5555556,18.1666667 C19.5555556,17.5238095 20.1043084,17 20.7777778,17 C21.4512472,17 22,17.5238095 22,18.1666667 L22,21.6666667 C22,22.952381 20.9024943,24 19.5555556,24 L2.44444444,24 C1.09750567,24 0,22.952381 0,21.6666667 L4.43082205e-16,18.1666667 Z"/></g></g></svg>