<svg xmlns="http://www.w3.org/2000/svg" xmlns:xlink="http://www.w3.org/1999/xlink" width="38" height="41" version="1.1" viewBox="0 0 38 41"><g id="My-Plan-Icons" fill="none" fill-rule="evenodd" stroke="none" stroke-width="1"><g id="Day-Plan-Download" fill-rule="nonzero" stroke="#418AD0" stroke-width="1.5" transform="translate(-831.000000, -857.000000)"><g id="Group-11-Copy-3" filter="url(#filter-1)" transform="translate(555.000000, 830.000000)"><g id="Group-9"><g id="H2-with-subtitle-Copy-5" transform="translate(20.000000, 25.000000)"><g id="noun_Download_2499753-Copy" transform="translate(261.000000, 5.000000)"><path id="Shape" d="M12.4444444,19.5173469 L12.4444444,1.55 C12.4444444,0.695918367 13.1428571,0 14,0 C14.8571429,0 15.5555556,0.695918367 15.5555556,1.55 L15.5555556,19.5173469 L20.6984127,14.3928571 C21.3650794,13.855102 22.3492063,13.9183673 22.8888889,14.5826531 C23.3968254,15.1520408 23.3650794,16.0377551 22.8888889,16.6071429 L15.0793651,24.3571429 C14.4761905,24.9581633 13.4920635,24.9581633 12.8888889,24.3571429 L5.14285714,16.6071429 C4.57142857,15.9744898 4.63492063,14.9938776 5.3015873,14.4244898 C5.87301587,13.9183673 6.73015873,13.9183673 7.33333333,14.4244898 C7.3015873,14.3928571 12.4444444,19.5173469 12.4444444,19.5173469 Z M5.63922806e-16,23.25 C5.63922806e-16,22.3959184 0.698412698,21.7 1.55555556,21.7 C2.41269841,21.7 3.11111111,22.3959184 3.11111111,23.25 L3.11111111,27.9 L24.8888889,27.9 L24.8888889,23.25 C24.8888889,22.3959184 25.5873016,21.7 26.4444444,21.7 C27.3015873,21.7 28,22.3959184 28,23.25 L28,27.9 C28,29.6081633 26.6031746,31 24.8888889,31 L3.11111111,31 C1.3968254,31 0,29.6081633 0,27.9 L5.63922806e-16,23.25 Z"/></g></g></g></g></g></g></svg>