<svg xmlns="http://www.w3.org/2000/svg" xmlns:xlink="http://www.w3.org/1999/xlink" width="29" height="17" version="1.1" viewBox="0 0 29 17"><g id="My-Plan-Icons" fill="none" fill-rule="evenodd" stroke="none" stroke-width="1"><g id="overview-tab-icon-blue" fill-rule="nonzero" transform="translate(1.000000, 1.000000)"><g id="Group"><path id="Shape" stroke="#418AD0" stroke-width="1.5" d="M26.3282609,6.74021739 C26.1032609,6.48586957 20.9184783,0.759782609 14.2043478,0.306521739 C13.6497368,0.241303349 13.0893936,0.241303349 12.5347826,0.306521739 C5.82065217,0.759782609 0.652173913,6.48586957 0.410869565,6.74021739 C0.0231770179,7.17255401 0.0231770179,7.82744599 0.410869565,8.25978261 C0.635869565,8.51413043 5.82065217,14.2402174 12.5347826,14.6934783 C13.0893936,14.7586967 13.6497368,14.7586967 14.2043478,14.6934783 C20.9184783,14.2402174 26.1032609,8.49782609 26.3282609,8.25978261 C26.7159534,7.82744599 26.7159534,7.17255401 26.3282609,6.74021739 Z M18.3293478,7.5 C18.3257088,10.011778 16.4472406,12.1254046 13.9532609,12.423913 C13.7576087,12.423913 13.5652174,12.4434783 13.3695652,12.4434783 C13.173913,12.4434783 12.9815217,12.4434783 12.7858696,12.423913 C10.2950895,12.1227181 8.42150602,10.0089248 8.42150602,7.5 C8.42150602,4.99107522 10.2950895,2.87728194 12.7858696,2.57608696 C12.9815217,2.57608696 13.173913,2.55652174 13.3695652,2.55652174 C13.5652174,2.55652174 13.7576087,2.55652174 13.9532609,2.57608696 C16.4472406,2.87459535 18.3257088,4.98822196 18.3293478,7.5 Z"/><circle id="Oval" cx="13.37" cy="7.5" r="2.26" fill="#418AD0" transform="translate(13.369786, 7.500000) rotate(-45.000000) translate(-13.369786, -7.500000)"/></g></g></g></svg>