<svg xmlns="http://www.w3.org/2000/svg" xmlns:xlink="http://www.w3.org/1999/xlink" width="33" height="37" version="1.1" viewBox="0 0 33 37"><g id="Homepage-and-Style-Guide" fill="none" fill-rule="evenodd" stroke="none" stroke-width="1"><g id="LSX-Health-blocks" fill="#418AD0" transform="translate(-368.000000, -1362.000000)"><g id="heading-copy-2" transform="translate(64.000000, 504.000000)"><g id="Game-Plan" transform="translate(0.000000, 657.000000)"><g id="First-Section" transform="translate(1.000000, 179.000000)"><g id="ActiveBlock" transform="translate(263.333333, 0.000000)"><g id="hourglass" transform="translate(39.666667, 22.000000)"><path id="Path" d="M15.1623178,18.1639241 C15.1623178,18.6270177 15.538372,19 16.0007851,19 C16.4631982,19 16.8392523,18.624667 16.8392523,18.1639241 C16.8400374,17.1844538 17.1886137,16.2324087 17.8213895,15.4833098 C19.229041,13.8174267 20.2841908,12.0112835 20.9522953,10.115029 C21.0425797,9.85879956 21.0033256,9.57514496 20.8463092,9.35339289 C20.6885078,9.13164081 20.4341414,9 20.161718,9 L11.8390671,9 C11.5666437,9 11.3114922,9.13164081 11.1536908,9.35339289 C10.9966744,9.57514496 10.9574203,9.85879956 11.0477047,10.115029 C11.7173794,12.0112835 12.770959,13.8174267 14.1786105,15.4833098 C14.8121714,16.2324087 15.1615328,17.1852374 15.1623178,18.1639241 Z"/><path id="Path" d="M17.3633238,20.8269715 C17.3633238,20.3696958 16.9760544,20 16.4998506,20 C16.0236468,20 15.6363774,20.3712459 15.6363774,20.8269715 C15.6355689,22.0220887 14.8909446,23.2040302 13.5399487,24.1627592 C10.6503858,26.2080992 8.4876604,28.4301492 7.1116011,30.7661306 C6.96041244,31.0234451 6.96283793,31.3365627 7.11887756,31.5892269 C7.2724917,31.8442162 7.55708211,32 7.86431039,32 L25.1370078,32 C25.4434276,32 25.7272095,31.8442162 25.8824406,31.5892269 C26.0368633,31.3365627 26.0392888,31.0234451 25.8889086,30.7661306 C24.5136578,28.4301492 22.3501239,26.2080992 19.4613695,24.1627592 C18.1087566,23.2040302 17.3641323,22.0220887 17.3633238,20.8269715 Z"/><path id="Shape" d="M31.3063924,33.6362921 L30.8002112,33.6362921 C30.2187763,27.0922939 26.3626107,22.0683801 23.3651312,18.5 C26.3634029,14.9324071 30.2179841,9.90770606 30.8017955,3.36370793 L31.3079767,3.36370793 C32.2427087,3.36370793 33,2.61035701 33,1.68146036 C33,0.752563721 32.2427087,0 31.3079767,0 L1.69202333,0 C0.757291342,0 0,0.753350921 0,1.68146036 C0,2.61035701 0.757291342,3.36370793 1.69202333,3.36370793 L2.19820447,3.36370793 C2.7804316,9.90849326 6.63501284,14.9331943 9.63328452,18.5 C6.63580499,22.0675929 2.7804316,27.0915067 2.19741232,33.6362921 L1.69202333,33.6362921 C0.757291342,33.6362921 0,34.3880686 0,35.3169652 C0,36.2466491 0.757291342,37 1.69202333,37 L3.80784464,37 L29.1913632,37 L31.3079767,37 C32.2427087,37 33,36.2466491 33,35.3169652 C33,34.3880686 32.2419165,33.6362921 31.3063924,33.6362921 Z M5.59017259,33.6362921 C6.22626563,27.7236288 10.0943134,23.1704608 12.9848532,19.7681801 L13.1393216,19.5863368 C13.6716436,18.9605123 13.6716436,18.0442109 13.1393216,17.4175993 L12.9856454,17.2365431 C10.0958976,13.8334752 6.22626563,9.28030722 5.59017259,3.36685673 L27.4090353,3.36685673 C26.7729422,9.28030722 22.9033102,13.8334752 20.0135625,17.2365431 L19.8606784,17.4175993 C19.3283564,18.0434237 19.3283564,18.9597251 19.8606784,19.5863368 L20.0151468,19.7681801 C22.9048945,23.1704608 26.7729422,27.7236288 27.4090353,33.6362921 L5.59017259,33.6362921 Z"/></g></g></g></g></g></g></g></svg>