<svg xmlns="http://www.w3.org/2000/svg" width="29" height="17" viewBox="0 0 29 17"><title>Eye</title><desc>.</desc><g fill="none"><path d="M27.3 7.7C27.1 7.5 21.9 1.8 15.2 1.3 14.6 1.2 14.1 1.2 13.5 1.3 6.8 1.8 1.7 7.5 1.4 7.7 1 8.2 1 8.8 1.4 9.3 1.6 9.5 6.8 15.2 13.5 15.7 14.1 15.8 14.6 15.8 15.2 15.7 21.9 15.2 27.1 9.5 27.3 9.3 27.7 8.8 27.7 8.2 27.3 7.7ZM19.3 8.5C19.3 11 17.4 13.1 15 13.4 14.8 13.4 14.6 13.4 14.4 13.4 14.2 13.4 14 13.4 13.8 13.4 11.3 13.1 9.4 11 9.4 8.5 9.4 6 11.3 3.9 13.8 3.6 14 3.6 14.2 3.6 14.4 3.6 14.6 3.6 14.8 3.6 15 3.6 17.4 3.9 19.3 6 19.3 8.5Z" style="stroke-width:2;stroke:#FFF"/><circle transform="translate(-164 -349)translate(150 329)translate(15 21)translate(13.369786 7.5)rotate(-45)translate(-13.369786 -7.5)" cx="13.4" cy="7.5" r="2.3" fill="#FFF"/></g></svg>