<svg xmlns="http://www.w3.org/2000/svg" xmlns:xlink="http://www.w3.org/1999/xlink" width="123" height="96" version="1.1" viewBox="0 0 123 96"><g id="WC-emails,-checkout,-login,-" fill="none" fill-rule="evenodd" stroke="none" stroke-width="1"><g id="Checkout" fill-rule="nonzero" transform="translate(-812.000000, -939.000000)"><g id="le-logo-standard" transform="translate(812.000000, 939.000000)"><path id="Path" fill="#FFA400" d="M108,32 L100.846386,32 L100.846386,28.3534884 C100.846386,25.4511628 98.436747,23.0697674 95.5,23.0697674 C92.563253,23.0697674 90.1536145,25.4511628 90.1536145,28.3534884 L90.1536145,32 L83,32 L83,28.3534884 C83,21.5069767 88.6475904,16 95.5,16 C102.427711,16 108,21.5813953 108,28.3534884 L108,32 Z"/><path id="Shape" fill="#003A70" d="M110.56962,32 L79.4303797,32 C78.0632911,32 77,33.0681199 77,34.4414169 L77,57.5585831 C77,58.9318801 78.0632911,60 79.4303797,60 L110.56962,60 C111.936709,60 113,58.9318801 113,57.5585831 L113,34.4414169 C112.924051,33.0681199 111.860759,32 110.56962,32 Z M96.5189873,47.1825613 L96.5189873,50.3106267 C96.5189873,51.1498638 95.835443,51.9128065 94.9240506,51.9128065 C94.0886076,51.9128065 93.3291139,51.226158 93.3291139,50.3106267 L93.3291139,47.1825613 C92.3417722,46.6485014 91.7341772,45.5803815 91.7341772,44.359673 C91.7341772,42.6049046 93.1772152,41.1553134 94.9240506,41.1553134 C96.6708861,41.1553134 98.1139241,42.6049046 98.1139241,44.359673 C98.1898734,45.5803815 97.5063291,46.6485014 96.5189873,47.1825613 Z"/><path id="Path" fill="#FFA400" d="M76.7834395,29 L69.2165605,29 C67.9936306,29 67,28.1034483 67,27 C67,25.8965517 67.9936306,25 69.2165605,25 L76.7834395,25 C78.0063694,25 79,25.8965517 79,27 C79,28.1034483 78.0063694,29 76.7834395,29 Z"/><path id="Path" fill="#FFA400" d="M81.8349354,17 C81.3931273,17 80.8776845,16.8529445 80.5095111,16.4853058 L74.7660055,11.7795304 C73.8823893,11.044253 73.7351199,9.72075362 74.4714668,8.76489299 C75.2078136,7.88256009 76.533238,7.73550461 77.4904889,8.47078202 L83.2339945,13.1765575 C84.1176107,13.9118349 84.2648801,15.2353342 83.5285332,16.1911948 C83.0130904,16.705889 82.4240129,17 81.8349354,17 Z"/><path id="Path" fill="#FFA400" d="M95,12 C93.8965517,12 93,11.0126582 93,9.79746835 L93,2.20253165 C93,0.987341772 93.8965517,0 95,0 C96.1034483,0 97,0.987341772 97,2.20253165 L97,9.79746835 C97,11.0126582 96.1034483,12 95,12 Z"/><path id="Path" fill="#FFA400" d="M108.09143,17 C107.502352,17 106.83964,16.705889 106.471467,16.1911948 C105.73512,15.308862 105.882389,13.9118349 106.766006,13.1765575 L112.509511,8.47078202 C113.393127,7.73550461 114.792186,7.88256009 115.528533,8.76489299 C116.26488,9.64722588 116.117611,11.044253 115.233994,11.7795304 L109.490489,16.4853058 C109.048681,16.8529445 108.606873,17 108.09143,17 Z"/><path id="Path" fill="#FFA400" d="M120.797468,29 L113.202532,29 C111.987342,29 111,28.1034483 111,27 C111,25.8965517 111.987342,25 113.202532,25 L120.797468,25 C122.012658,25 123,25.8965517 123,27 C123,28.1034483 122.012658,29 120.797468,29 Z"/><polygon id="Path" fill="#003A70" points="0 59 0 35 5.764 35 5.764 53.947 15 53.947 15 59"/><path id="Shape" fill="#003A70" d="M34,51.186722 C34,51.4107884 34,51.6348548 34,51.8589212 C34,52.0829876 34,52.3070539 34,52.5311203 L21.4683544,52.5311203 C21.5443038,52.9792531 21.6962025,53.4273859 21.9240506,53.8008299 C22.1518987,54.1742739 22.4556962,54.5477178 22.835443,54.7717842 C23.2151899,55.0705394 23.6708861,55.2946058 24.1265823,55.4439834 C24.5822785,55.593361 25.1139241,55.6680498 25.5696203,55.6680498 C26.4810127,55.6680498 27.2405063,55.5186722 27.8481013,55.1452282 C28.4556962,54.846473 28.9873418,54.3983402 29.3670886,53.8755187 L33.3164557,56.340249 C32.4810127,57.5352697 31.4177215,58.3568465 30.1265823,59.0290456 C28.835443,59.626556 27.2405063,60 25.4936709,60 C24.2025316,60 22.9873418,59.7759336 21.8481013,59.4024896 C20.7088608,59.0290456 19.721519,58.4315353 18.8101266,57.6846473 C17.9746835,56.9377593 17.2911392,55.966805 16.7594937,54.846473 C16.2278481,53.7261411 16,52.4564315 16,51.0373444 C16,49.6182573 16.2278481,48.4232365 16.7594937,47.3029046 C17.2151899,46.1825726 17.8987342,45.2116183 18.7341772,44.4647303 C19.5696203,43.7178423 20.556962,43.0456432 21.6962025,42.6721992 C22.835443,42.2240664 24.0506329,42 25.3417722,42 C26.6329114,42 27.7721519,42.2240664 28.835443,42.5975104 C29.8987342,43.0456432 30.8101266,43.6431535 31.5696203,44.3900415 C32.3291139,45.2116183 32.9367089,46.1825726 33.3164557,47.3029046 C33.7721519,48.4979253 34,49.7676349 34,51.186722 Z M28.7594937,49.0954357 C28.7594937,48.1991701 28.4556962,47.4522822 27.9240506,46.780083 C27.3924051,46.1078838 26.4810127,45.8091286 25.3417722,45.8091286 C24.8101266,45.8091286 24.278481,45.8838174 23.8227848,46.033195 C23.3670886,46.1825726 22.9873418,46.406639 22.6075949,46.7053942 C22.2278481,47.0041494 22,47.3775934 21.7721519,47.7510373 C21.5443038,48.1244813 21.4683544,48.5726141 21.3924051,49.0207469 L28.7594937,49.0207469 L28.7594937,49.0954357 Z"/><path id="Path" fill="#003A70" d="M43.0981595,46.7098976 L43.0981595,53.2423208 C43.0981595,54.0682594 43.2453988,54.668942 43.5398773,55.0443686 C43.8343558,55.4197952 44.3496933,55.6450512 45.1595092,55.6450512 C45.4539877,55.6450512 45.7484663,55.6450512 46.0429448,55.5699659 C46.3374233,55.4948805 46.6319018,55.4197952 46.7791411,55.3447099 L46.8527607,59.4744027 C46.4846626,59.6245734 45.9693252,59.6996587 45.3803681,59.8498294 C44.791411,59.9249147 44.202454,60 43.6134969,60 C42.5092025,60 41.5521472,59.8498294 40.8159509,59.5494881 C40.0797546,59.2491468 39.4171779,58.8737201 38.9754601,58.3481229 C38.5337423,57.8225256 38.1656442,57.1467577 38.0184049,56.3959044 C37.8711656,55.6450512 37.7239264,54.8191126 37.7239264,53.9180887 L37.7239264,46.7098976 L35,46.7098976 L35,42.5051195 L37.6503067,42.5051195 L37.6503067,38 L43.0981595,38 L43.0981595,42.5051195 L47,42.5051195 L47,46.7098976 L43.0981595,46.7098976 L43.0981595,46.7098976 Z"/><path id="Path" fill="#003A70" d="M65.8341709,47.4979079 C65.3819095,47.0460251 64.8542714,46.6694561 64.2512563,46.3682008 C63.6482412,46.0669456 62.9698492,45.916318 62.2914573,45.916318 C61.7638191,45.916318 61.3115578,45.9916318 60.8592965,46.2175732 C60.4070352,46.4435146 60.1809045,46.7447699 60.1809045,47.2719665 C60.1809045,47.7238494 60.4070352,48.1004184 60.9346734,48.3263598 C61.4623116,48.5523013 62.2160804,48.7782427 63.3467337,49.0041841 C64.0251256,49.1548117 64.6281407,49.3054393 65.3065327,49.6066946 C65.9849246,49.9079498 66.5125628,50.209205 67.040201,50.5857741 C67.5678392,50.9623431 68.0201005,51.4895397 68.321608,52.0920502 C68.6231156,52.6945607 68.7738693,53.3723849 68.7738693,54.2008368 C68.7738693,55.2552301 68.5477387,56.1589958 68.0954774,56.9121339 C67.6432161,57.665272 67.1155779,58.2677824 66.361809,58.7196653 C65.6834171,59.1715481 64.8542714,59.4728033 64.0251256,59.6987448 C63.120603,59.9246862 62.2914573,60 61.3869347,60 C59.9547739,60 58.5979899,59.7740586 57.3165829,59.3221757 C55.959799,58.8702929 54.8291457,58.1924686 54,57.3640167 L57.1658291,54.0502092 C57.6934673,54.5774059 58.2964824,55.0292887 59.0502513,55.4058577 C59.8040201,55.7824268 60.5577889,55.9330544 61.3869347,55.9330544 C61.839196,55.9330544 62.2914573,55.8577406 62.7437186,55.6317992 C63.1959799,55.4058577 63.4221106,55.0292887 63.4221106,54.5020921 C63.4221106,53.9748954 63.120603,53.5983264 62.5929648,53.2970711 C62.0653266,53.0711297 61.160804,52.7698745 60.0301508,52.5439331 C59.4271357,52.3933054 58.8241206,52.2426778 58.2211055,52.0167364 C57.6180905,51.790795 57.0904523,51.4895397 56.638191,51.1129707 C56.1859296,50.7364017 55.8090452,50.209205 55.5075377,49.6820084 C55.2060302,49.0794979 55.0552764,48.4016736 55.0552764,47.6485356 C55.0552764,46.5941423 55.281407,45.7656904 55.7336683,45.0125523 C56.1859296,44.2594142 56.7135678,43.7322176 57.3919598,43.2803347 C58.0703518,42.8284519 58.8241206,42.4518828 59.6532663,42.3012552 C60.4824121,42.0753138 61.3115578,42 62.1407035,42 C63.4221106,42 64.7035176,42.2259414 65.9095477,42.6025105 C67.1155779,42.9790795 68.1708543,43.58159 69,44.4100418 L65.8341709,47.4979079 Z"/><polygon id="Path" fill="#003A70" points="0 87 0 63 16.396 63 16.396 67.904 5.667 67.904 5.667 72.437 15.791 72.437 15.791 77.043 5.667 77.043 5.667 82.022 17 82.022 17 87"/><path id="Path" fill="#003A70" d="M31.5112108,86.9270386 L31.5112108,77.8798283 C31.5112108,77.4420601 31.4349776,77.0042918 31.3587444,76.5665236 C31.2825112,76.1287554 31.1300448,75.7639485 30.9775785,75.472103 C30.8251121,75.1802575 30.5201794,74.888412 30.2152466,74.7424893 C29.9103139,74.5236052 29.4529148,74.4506438 28.9192825,74.4506438 C28.3856502,74.4506438 27.9282511,74.5236052 27.5470852,74.7424893 C27.1659193,74.9613734 26.8609865,75.1802575 26.5560538,75.5450644 C26.3273543,75.9098712 26.0986547,76.2746781 25.9461883,76.7124464 C25.793722,77.1502146 25.7174888,77.5879828 25.7174888,78.0257511 L25.7174888,87 L20,87 L20,70.4377682 L25.4887892,70.4377682 L25.4887892,72.6995708 L25.5650224,72.6995708 C25.793722,72.3347639 26.0224215,71.9699571 26.4035874,71.6781116 C26.7085202,71.3133047 27.1659193,71.0214592 27.5470852,70.8025751 C28.0044843,70.583691 28.4618834,70.3648069 28.9955157,70.2188841 C29.529148,70.0729614 30.0627803,70 30.6726457,70 C31.8161435,70 32.8071749,70.2188841 33.6457399,70.583691 C34.4843049,70.9484979 35.0941704,71.5321888 35.6278027,72.1158798 C36.161435,72.7725322 36.4663677,73.5021459 36.6950673,74.304721 C36.9237668,75.1072961 37,75.9098712 37,76.7854077 L37,87 L31.5112108,87 L31.5112108,86.9270386 Z"/><path id="Path" fill="#003A70" d="M51.5283019,75.9751037 C51.2264151,75.6016598 50.7735849,75.2282158 50.245283,75.0041494 C49.7169811,74.780083 49.1132075,74.6307054 48.5849057,74.6307054 C47.9811321,74.6307054 47.4528302,74.780083 47,75.0041494 C46.5471698,75.2282158 46.0943396,75.526971 45.7924528,75.9751037 C45.490566,76.4232365 45.1886792,76.7966805 44.9622642,77.3195021 C44.7358491,77.8423237 44.6603774,78.3651452 44.6603774,78.9626556 C44.6603774,79.560166 44.7358491,80.0829876 44.9622642,80.6058091 C45.1132075,81.1286307 45.4150943,81.5767635 45.7924528,81.9502075 C46.1698113,82.3236515 46.5471698,82.6970954 47.0754717,82.9211618 C47.6037736,83.1452282 48.1320755,83.2946058 48.7358491,83.2946058 C49.3396226,83.2946058 49.8679245,83.219917 50.4716981,82.9958506 C51,82.7717842 51.4528302,82.473029 51.8301887,82.0248963 L54.9245283,85.8340249 C54.245283,86.5062241 53.2641509,87.0290456 52.2075472,87.4024896 C51.0754717,87.7759336 49.8679245,88 48.6603774,88 C47.3018868,88 46.0188679,87.7759336 44.8867925,87.4024896 C43.6792453,87.0290456 42.6981132,86.4315353 41.7924528,85.6099585 C40.9622642,84.8630705 40.2830189,83.8921162 39.754717,82.7717842 C39.2264151,81.6514523 39,80.3817427 39,78.9626556 C39,77.5435685 39.2264151,76.3485477 39.754717,75.2282158 C40.2830189,74.1078838 40.9622642,73.1369295 41.7924528,72.3900415 C42.6226415,71.6431535 43.6792453,70.9709544 44.8867925,70.5975104 C46.0943396,70.1493776 47.3018868,70 48.6603774,70 C49.2641509,70 49.8679245,70.0746888 50.4716981,70.1493776 C51.0754717,70.2987552 51.6792453,70.4481328 52.2075472,70.5975104 C52.7358491,70.8215768 53.2641509,71.0456432 53.7924528,71.3443983 C54.245283,71.6431535 54.6981132,71.9419087 55,72.3153527 L51.5283019,75.9751037 Z"/><path id="Path" fill="#003A70" d="M67.7086093,74.9613734 C67.4900662,74.888412 67.1986755,74.8154506 66.9801325,74.8154506 C66.7615894,74.8154506 66.5430464,74.8154506 66.3245033,74.8154506 C65.5960265,74.8154506 65.013245,74.9613734 64.5033113,75.1802575 C63.9933775,75.472103 63.6291391,75.7639485 63.3377483,76.1287554 C63.0463576,76.4935622 62.8278146,76.9313305 62.6821192,77.3690987 C62.5364238,77.806867 62.4635762,78.1716738 62.4635762,78.5364807 L62.4635762,87 L57,87 L57,70.4377682 L62.2450331,70.4377682 L62.2450331,72.8454936 L62.3178808,72.8454936 C62.7549669,71.9699571 63.3377483,71.3133047 64.1390728,70.8025751 C64.9403974,70.2918455 65.8145695,70 66.8344371,70 C67.0529801,70 67.2715232,70 67.4900662,70 C67.7086093,70 67.8543046,70.0729614 68,70.0729614 L67.7086093,74.9613734 Z"/><path id="Path" fill="#003A70" d="M81.2007722,90.3620178 C80.8146718,91.2522255 80.4285714,91.9940653 80.042471,92.735905 C79.5791506,93.4035608 79.1158301,93.9970326 78.4980695,94.5163205 C77.8803089,95.0356083 77.1853282,95.3323442 76.4131274,95.6290801 C75.6409266,95.851632 74.6370656,96 73.5559846,96 C73.015444,96 72.4749035,96 71.8571429,95.925816 C71.3166023,95.851632 70.7760618,95.7774481 70.3899614,95.6290801 L71.007722,90.9554896 C71.3166023,91.0296736 71.6254826,91.1038576 71.9343629,91.1780415 C72.2432432,91.2522255 72.5521236,91.2522255 72.8610039,91.2522255 C73.7876448,91.2522255 74.4054054,91.0296736 74.7915058,90.6587537 C75.1776062,90.2878338 75.5637066,89.694362 75.7953668,88.9525223 L76.3359073,87.5430267 L69,71 L75.4092664,71 L79.3474903,81.8308605 L79.4247104,81.8308605 L82.8996139,71 L89,71 L81.2007722,90.3620178 Z"/><path id="Shape" fill="#003A70" d="M109,78.8187135 C109,80.0350877 108.849802,81.1754386 108.474308,82.3157895 C108.098814,83.4561404 107.573123,84.3684211 106.897233,85.2807018 C106.221344,86.1169591 105.320158,86.8011696 104.343874,87.3333333 C103.367589,87.8654971 102.166008,88.0935673 100.889328,88.0935673 C99.8379447,88.0935673 98.8616601,87.8654971 97.8853755,87.4853801 C96.9841897,87.0292398 96.2332016,86.497076 95.7075099,85.7368421 L95.6324111,85.7368421 L95.6324111,96 L90,96 L90,70.4561404 L95.3320158,70.4561404 L95.3320158,72.5847953 L95.4071146,72.5847953 C95.9328063,71.9005848 96.6837945,71.2923977 97.5849802,70.7602339 C98.486166,70.2280702 99.6126482,70 100.889328,70 C102.090909,70 103.217391,70.2280702 104.268775,70.7602339 C105.245059,71.2163743 106.146245,71.9005848 106.822134,72.7368421 C107.498024,73.5730994 108.023715,74.5614035 108.399209,75.625731 C108.774704,76.4619883 109,77.6023392 109,78.8187135 Z M103.517787,78.8187135 C103.517787,78.2865497 103.442688,77.754386 103.29249,77.2222222 C103.142292,76.6900585 102.841897,76.2339181 102.541502,75.8538012 C102.241107,75.4736842 101.790514,75.0935673 101.264822,74.8654971 C100.73913,74.6374269 100.213439,74.4853801 99.5375494,74.4853801 C98.8616601,74.4853801 98.3359684,74.6374269 97.8102767,74.8654971 C97.284585,75.0935673 96.9090909,75.4736842 96.5335968,75.8538012 C96.1581028,76.2339181 95.9328063,76.7660819 95.7075099,77.2982456 C95.4822134,77.8304094 95.4071146,78.3625731 95.4071146,78.8947368 C95.4071146,79.4269006 95.4822134,79.9590643 95.7075099,80.4912281 C95.9328063,81.0233918 96.1581028,81.4795322 96.5335968,81.9356725 C96.9090909,82.3157895 97.284585,82.6959064 97.8102767,82.9239766 C98.3359684,83.1520468 98.8616601,83.3040936 99.5375494,83.3040936 C100.213439,83.3040936 100.814229,83.1520468 101.264822,82.9239766 C101.790514,82.6959064 102.166008,82.3157895 102.541502,81.9356725 C102.841897,81.5555556 103.142292,81.0233918 103.29249,80.4912281 C103.442688,79.8830409 103.517787,79.3508772 103.517787,78.8187135 Z"/><path id="Path" fill="#003A70" d="M118.074074,74.7098976 L118.074074,81.2423208 C118.074074,82.0682594 118.222222,82.668942 118.518519,83.0443686 C118.814815,83.4197952 119.333333,83.6450512 120.148148,83.6450512 C120.444444,83.6450512 120.740741,83.6450512 121.037037,83.5699659 C121.333333,83.4948805 121.62963,83.4197952 121.777778,83.3447099 L121.851852,87.4744027 C121.481481,87.6245734 120.962963,87.6996587 120.37037,87.8498294 C119.777778,87.9249147 119.185185,88 118.592593,88 C117.481481,88 116.518519,87.8498294 115.777778,87.5494881 C115.037037,87.2491468 114.37037,86.8737201 113.925926,86.3481229 C113.481481,85.8225256 113.111111,85.1467577 112.962963,84.3959044 C112.814815,83.6450512 112.666667,82.8191126 112.666667,81.9180887 L112.666667,74.7098976 L110,74.7098976 L110,70.5051195 L112.666667,70.5051195 L112.666667,66 L118.074074,66 L118.074074,70.5051195 L122,70.5051195 L122,74.7098976 L118.074074,74.7098976 L118.074074,74.7098976 Z"/><path id="Path" fill="#003A70" d="M52.8915663,35 C51.3012048,35 50,36.1678832 50,37.7007299 C50,39.3065693 51.0843373,40.3284672 52.6746988,40.3284672 C52.8192771,40.3284672 52.9638554,40.3284672 53.0361446,40.2554745 C52.746988,41.4233577 51.6626506,42.2992701 50.5783133,42.4452555 L50.3614458,42.4452555 L50.3614458,45 L50.6506024,45 C51.9518072,44.8540146 53.1807229,44.270073 54.1204819,43.3941606 C55.3493976,42.2262774 56,40.4744526 56,38.4306569 C56,36.459854 54.6987952,35 52.8915663,35 Z"/></g></g></g></svg>