<svg xmlns="http://www.w3.org/2000/svg" xmlns:xlink="http://www.w3.org/1999/xlink" width="14" height="11" version="1.1" viewBox="0 0 14 11"><g id="My-Plan-Icons" fill="none" fill-rule="evenodd" stroke="none" stroke-width="1" opacity=".5"><g id="My-Account/Dashboard----Weekly-PLan" fill="#418AD0" fill-rule="nonzero" transform="translate(-748.000000, -245.000000)"><g id="icon-logout-blue" transform="translate(748.000000, 245.285702)"><path id="" d="M5.35714924,9.9107261 C5.35714924,10.1451014 5.46596634,10.7142985 5.08929178,10.7142985 L2.41071716,10.7142985 C1.07980039,10.7142985 1.77635684e-15,9.63449809 1.77635684e-15,8.30358133 L1.77635684e-15,2.41071716 C1.77635684e-15,1.07980039 1.07980039,2.66453526e-15 2.41071716,2.66453526e-15 L5.08929178,2.66453526e-15 C5.23159106,2.66453526e-15 5.35714924,0.125558185 5.35714924,0.267857462 C5.35714924,0.502232742 5.46596634,1.07142985 5.08929178,1.07142985 L2.41071716,1.07142985 C1.67410914,1.07142985 1.07142985,1.67410914 1.07142985,2.41071716 L1.07142985,8.30358133 C1.07142985,9.04018935 1.67410914,9.64286864 2.41071716,9.64286864 L4.82143432,9.64286864 C5.03069796,9.64286864 5.35714924,9.60101591 5.35714924,9.9107261 Z M13.1250156,5.35714924 C13.1250156,5.49944852 13.0664218,5.63337725 12.9659753,5.7338238 L8.41239842,10.2874007 C8.31195187,10.3878472 8.17802314,10.446441 8.03572387,10.446441 C7.74275477,10.446441 7.50000894,10.2036952 7.50000894,9.9107261 L7.50000894,7.50000894 L3.75000447,7.50000894 C3.45703537,7.50000894 3.21428955,7.25726312 3.21428955,6.96429402 L3.21428955,3.75000447 C3.21428955,3.45703537 3.45703537,3.21428955 3.75000447,3.21428955 L7.50000894,3.21428955 L7.50000894,0.803572387 C7.50000894,0.510603287 7.74275477,0.267857462 8.03572387,0.267857462 C8.17802314,0.267857462 8.31195187,0.326451282 8.41239842,0.42689783 L12.9659753,4.98047469 C13.0664218,5.08092124 13.1250156,5.21484997 13.1250156,5.35714924 Z"/></g></g></g></svg>