<svg xmlns="http://www.w3.org/2000/svg" xmlns:xlink="http://www.w3.org/1999/xlink" width="26" height="27" version="1.1" viewBox="0 0 26 27"><g id="Day-Plan-Meal" stroke="#418AD0" transform="translate(-607.000000, -342.000000)"><g id="Group-8" transform="translate(150.000000, 329.000000)"><g id="Group-4" transform="translate(458.000000, 14.000000)"><g id="Group-7"><g id="Group-4"><path id="Shape" d="M15.6909474,7.51333333 C15.8753684,7.36333333 16.0378947,7.24916667 16.1793684,7.11166667 C17.6892632,5.64333333 19.1941053,4.17083333 20.704,2.70166667 C20.9684211,2.4425 21.3010526,2.07666667 21.6168421,2.4825 C21.7549474,2.66083333 21.648,3.21 21.4618947,3.43416667 C20.1326505,5.03733933 18.769829,6.61295836 17.3743158,8.16 C16.9616842,8.61833333 16.8724211,8.93416667 17.3877895,9.3325 C17.6050526,9.5 17.776,9.72583333 18.0328421,9.99083333 C18.8648421,9.185 19.6741053,8.40666667 20.4783158,7.62166667 C21.3237895,6.79833333 22.1608421,5.96666667 23.008,5.1425 C23.2757895,4.88083333 23.6168421,4.54916667 23.9343158,4.93833333 C24.0673684,5.1025 23.9789474,5.63166667 23.8046316,5.8375 C22.2686316,7.65916667 20.7258947,9.47833333 19.1090526,11.2291667 C17.9907368,12.4408333 16.5650526,12.7316667 14.9692632,12.2641667 C14.7275789,12.1933333 14.3183158,12.2766667 14.1473684,12.4491667 C13.0095096,13.6035178 11.8943531,14.7795717 10.8025263,15.9766667 C10.6745263,16.115 10.6745263,16.3683333 10.5953684,16.5591667 C10.5229474,16.7358333 10.4555789,16.9325 10.3292632,17.0666667 C8.04714649,19.4973732 5.7591399,21.922658 3.46526316,24.3425 C2.73936842,25.11 1.856,25.1975 1.11578947,24.6008333 C0.371253695,24.0098547 0.199194603,22.9572963 0.717473684,22.1641667 C0.865684211,21.9316667 1.05094737,21.7183333 1.23957895,21.5175 C3.39789474,19.225 5.55873684,16.9341667 7.72884211,14.6516667 C7.94189474,14.4266667 8.09347368,14.0116667 8.56252632,14.2541667 C8.61642105,14.2816667 8.79073684,14.1275 8.88168421,14.0308333 C10.0311579,12.8225 11.184,11.6183333 12.3056842,10.3858333 C12.4538947,10.2241667 12.5296842,9.875 12.4665263,9.66333333 C11.9073684,7.76666667 12.3385263,6.15083333 13.7507368,4.78 C15.296,3.28083333 16.8193684,1.76 18.3865263,0.284166667 C18.6004211,0.0833333333 18.7368421,-6.32372943e-13 19.1578947,-4.54747351e-13 C19.5789474,-2.77172436e-13 19.3423158,0.760833333 19.1578947,0.9825 C17.888,2.51416667 16.5658947,4.0025 15.2614737,5.50583333 C15.0391579,5.765 14.8202105,6.02583333 14.5667368,6.3225 C14.9566316,6.73416667 15.3002105,7.09833333 15.6909474,7.51333333 Z"/><path id="Shape" d="M12.6307368,15.46 L14.3486316,13.64 C16.7132632,14.6683333 17.9713684,16.7883333 19.6656842,18.4283333 C20.7115789,19.4408333 21.6917895,20.5233333 22.6652632,21.6058333 C22.9633684,21.9375 23.2294737,22.3533333 23.3490526,22.7758333 C23.5789474,23.5858333 23.1730526,24.3983333 22.4707368,24.7766667 C21.7751579,25.1508333 21.0105263,25.0216667 20.3932632,24.3741667 C18.528,22.415 16.6745263,20.4433333 14.8176842,18.4766667 C14.5002105,18.14 14.1684211,17.8166667 13.872,17.4625 C13.6008421,17.1383333 13.1418947,16.9441667 13.2783158,16.3316667 C13.3271579,16.1216667 12.9002105,15.8033333 12.6307368,15.46 M11.1932632,10.1541667 L8.52884211,12.9758333 C5.69010526,10.6691667 3.28336842,8.13333333 2.18778947,4.61083333 C2.03621053,4.12333333 2.032,3.5525 2.10610526,3.0425 C2.20378947,2.36166667 2.70905263,2.09666667 3.33136842,2.39416667 C3.88547368,2.65833333 4.45810526,2.97666667 4.87915789,3.41083333 C6.95663158,5.5475 8.98694737,7.7325 11.0315789,9.90083333 C11.0778947,9.94833333 11.1056842,10.015 11.1932632,10.1541667"/></g></g></g></g></g></svg>