<?xml version="1.0" encoding="UTF-8"?>
<svg width="42px" height="42px" viewBox="0 0 42 42" version="1.1" xmlns="http://www.w3.org/2000/svg" xmlns:xlink="http://www.w3.org/1999/xlink">
    <!-- Generator: Sketch 54.1 (76490) - https://sketchapp.com -->
    <title>Group</title>
    <desc>Created with Sketch.</desc>
    <g id="My-Plan---Desktop-+-Mobile" stroke="none" stroke-width="1" fill="none" fill-rule="evenodd">
        <g id="Day-Plan--Mealplan-only-TAB-1" transform="translate(-159.000000, -373.000000)">
            <g id="Group-8" transform="translate(150.000000, 366.000000)">
                <g id="Group-2-Copy-3">
                    <g id="Group-9" transform="translate(10.000000, 8.000000)">
                        <g id="Group">
                            <circle id="Oval" stroke="#000000" cx="20" cy="20" r="20"></circle>
                            <g id="noun_lemon_2336880" transform="translate(11.000000, 5.000000)" fill="#000000" fill-rule="nonzero">
                                <path d="M6.90224428,12.0185475 C5.5592406,12.4701888 4.58325381,13.8321643 4.41572104,15.4883545 C4.39925726,15.6511134 4.45954074,15.8116108 4.57386327,15.9093888 C4.6881858,16.0071669 4.83917907,16.0273708 4.96996537,15.9623899 C5.10075167,15.897409 5.19146146,15.7571155 5.20792523,15.5943566 C5.33837249,14.3049602 6.0912481,13.2469454 7.1260533,12.899013 C7.33745037,12.8279314 7.45872019,12.5732095 7.39691704,12.3300757 C7.33511389,12.0869418 7.11364135,11.9474659 6.90224428,12.0185475 L6.90224428,12.0185475 Z" id="Path"></path>
                                <path d="M9.45098847,8.77643915 C12.6342948,7.34564073 14.3518182,3.80635179 13.5293316,0.372224791 C13.4668514,0.112510218 13.2101077,-0.0477780192 12.9536023,0.0127899134 C11.0946874,0.447595318 9.48696053,1.6248648 8.49398261,3.27837836 C7.93923982,4.18988796 7.58918939,5.21430563 7.46873505,6.27875094 C6.30150735,3.65491567 3.72959054,1.96744978 0.893622442,1.96473962 C0.628207973,1.96473962 0.413047033,2.18316443 0.413047033,2.45260508 C0.410788077,5.73419311 2.56034098,8.61621508 5.67234417,9.5040295 C2.58843169,10.9901287 0.413047033,14.5299585 0.413047033,18.6506531 C0.413047033,20.9052014 1.08387023,23.1121828 2.30194868,24.8648394 C3.44331528,26.5071775 5.01509722,27.6890926 6.75598164,28.2217807 C6.97001793,29.2579538 7.87015452,30 8.91304525,30 C9.95593421,30 10.8560708,29.2579538 11.0701071,28.2217807 C12.8109915,27.6890926 14.3828936,26.5071775 15.5241401,24.8648394 C16.7422185,23.1119388 17.4130417,20.9049574 17.4130417,18.6506531 C17.4134021,13.4050627 13.8882614,9.10056476 9.45098847,8.77643915 Z M9.31282304,3.78953939 C10.0828988,2.5068987 11.2838941,1.5502199 12.6942718,1.0959732 C12.9355335,2.58448856 12.6387522,4.11137184 11.8586112,5.39528757 C11.0833305,6.68418494 9.87995184,7.64948825 8.46544845,8.11714996 C8.22377836,6.6180859 8.52470905,5.08088164 9.31264282,3.78953939 L9.31282304,3.78953939 Z M1.3942018,2.96059499 C4.44960788,3.21417868 6.87487665,5.67621156 7.12470313,8.77796373 C4.06929705,8.52438004 1.64402828,6.06234716 1.3942018,2.96059499 Z M14.7389399,24.3026355 C13.6600481,25.8552673 12.1593313,26.9432073 10.5133605,27.3664915 C10.3047179,27.4201373 10.1566535,27.6080689 10.1509465,27.8264877 C10.1335858,28.4870575 9.57840102,29.0244413 8.91346487,29.0244413 C8.24852872,29.0244413 7.69310369,28.4870575 7.67598319,27.8264877 C7.67027621,27.6080689 7.52221185,27.4201373 7.31356926,27.3664915 C5.66759849,26.9433902 4.16688163,25.8552673 3.08798983,24.3026355 C1.98326711,22.7128039 1.37485864,20.7056034 1.37485864,18.6506531 C1.37485864,13.7327863 4.75690808,9.73180169 8.91388537,9.73180169 C13.0708627,9.73180169 16.4529121,13.7327863 16.4529121,18.6506531 C16.4522513,20.7056034 15.8436626,22.7128039 14.7389399,24.3026355 Z" id="Shape"></path>
                            </g>
                        </g>
                    </g>
                </g>
            </g>
        </g>
    </g>
</svg>