<svg xmlns="http://www.w3.org/2000/svg" xmlns:xlink="http://www.w3.org/1999/xlink" width="15" height="13" version="1.1" viewBox="0 0 15 13"><g id="My-Plan-Icons" fill="none" fill-rule="evenodd" stroke="none" stroke-width="1" opacity=".5"><g id="My-Account/Dashboard----Weekly-PLan" fill="#418AD0" fill-rule="nonzero" transform="translate(-314.000000, -244.000000)"><g id="icon-my-plan-blue" transform="translate(314.000000, 244.285702)"><path id="" d="M3.21428955,7.50000894 C3.21428955,6.9057002 2.73716844,6.42857909 2.1428597,6.42857909 C1.54855095,6.42857909 1.07142985,6.9057002 1.07142985,7.50000894 C1.07142985,8.09431768 1.54855095,8.57143879 2.1428597,8.57143879 C2.73716844,8.57143879 3.21428955,8.09431768 3.21428955,7.50000894 Z M4.82143432,3.75000447 C4.82143432,3.15569573 4.34431321,2.67857462 3.75000447,2.67857462 C3.15569573,2.67857462 2.67857462,3.15569573 2.67857462,3.75000447 C2.67857462,4.34431321 3.15569573,4.82143432 3.75000447,4.82143432 C4.34431321,4.82143432 4.82143432,4.34431321 4.82143432,3.75000447 Z M8.40402788,7.77623695 L9.24945299,4.57868849 C9.31641736,4.29408994 9.14900644,4.00112084 8.86440789,3.92578593 C8.57980934,3.85045102 8.28684024,4.02623248 8.21150532,4.31083103 L7.36608021,7.50837949 C6.7048071,7.55860276 6.12723945,8.01898277 5.94308744,8.69699697 C5.71708271,9.55916318 6.23605654,10.4380705 7.0898522,10.6640752 C7.95201841,10.8900799 8.83092571,10.3711061 9.05693044,9.51731045 C9.2327119,8.83929625 8.94811335,8.1529115 8.40402788,7.77623695 Z M13.928588,7.50000894 C13.928588,6.9057002 13.4514669,6.42857909 12.8571582,6.42857909 C12.2628494,6.42857909 11.7857283,6.9057002 11.7857283,7.50000894 C11.7857283,8.09431768 12.2628494,8.57143879 12.8571582,8.57143879 C13.4514669,8.57143879 13.928588,8.09431768 13.928588,7.50000894 Z M8.57143879,2.1428597 C8.57143879,1.54855095 8.09431768,1.07142985 7.50000894,1.07142985 C6.9057002,1.07142985 6.42857909,1.54855095 6.42857909,2.1428597 C6.42857909,2.73716844 6.9057002,3.21428955 7.50000894,3.21428955 C8.09431768,3.21428955 8.57143879,2.73716844 8.57143879,2.1428597 Z M12.3214433,3.75000447 C12.3214433,3.15569573 11.8443222,2.67857462 11.2500134,2.67857462 C10.6557047,2.67857462 10.1785836,3.15569573 10.1785836,3.75000447 C10.1785836,4.34431321 10.6557047,4.82143432 11.2500134,4.82143432 C11.8443222,4.82143432 12.3214433,4.34431321 12.3214433,3.75000447 Z M15.0000179,7.50000894 C15.0000179,8.9397428 14.5898611,10.3292534 13.8197709,11.5429825 C13.7193244,11.6936523 13.5519135,11.7857283 13.3677615,11.7857283 L1.63225641,11.7857283 C1.4481044,11.7857283 1.28069349,11.6936523 1.18024694,11.5429825 C0.410156739,10.3376239 8.8817842e-16,8.9397428 8.8817842e-16,7.5 C8.8817842e-16,3.36495937 3.36495937,1.77635684e-15 7.5,1.77635684e-15 C11.6350585,1.77635684e-15 15.0000179,3.36495937 15.0000179,7.50000894 Z"/></g></g></g></svg>