<svg xmlns="http://www.w3.org/2000/svg" xmlns:xlink="http://www.w3.org/1999/xlink" id="Layer_1" data-name="Layer 1" viewBox="0 0 664.38 204.02"><defs><style>.cls-1{fill:url(#New_Gradient_Swatch_1)}.cls-2{fill:url(#New_Gradient_Swatch_1-2)}.cls-3{fill:#231f20}.cls-4{fill:url(#New_Gradient_Swatch_1-3)}</style><linearGradient id="New_Gradient_Swatch_1" x1="675.66" x2="659.49" y1="180.04" y2="334.58" gradientUnits="userSpaceOnUse"><stop offset=".02" stop-color="#ed1c24"/><stop offset="1" stop-color="#be1e2d"/></linearGradient><linearGradient id="New_Gradient_Swatch_1-2" x1="242.92" x2="242.92" y1="102.83" y2="177.95" xlink:href="#New_Gradient_Swatch_1"/><linearGradient id="New_Gradient_Swatch_1-3" x1="121.49" x2="121.49" y1="89.44" y2="187.99" xlink:href="#New_Gradient_Swatch_1"/></defs><title>PayFast Logo Colour</title><path d="M720.59,111a65.65,65.65,0,0,1-12.38,5.81,58.62,58.62,0,0,1-14.65,3.66c-2.13.35-4.3.65-6.52.87H687c-20.53,1.76-38.06-2.65-48.08-12.09-.1-.06-.16-.18-.26-.24,0,.36,0,.73,0,1.13a17.42,17.42,0,0,0,4.4,11.39c8.14,9.34,23.79,14.43,42,14.72,12.12.08,23.18-2.2,31.65-6.27a33.44,33.44,0,0,0,10.58-7.72,17.44,17.44,0,0,0,4.61-11.34,16.42,16.42,0,0,0-1.85-7.58A41.76,41.76,0,0,1,720.59,111Zm-35.78-12.9c-19.19,1.47-35.72-2.12-46-10.3a17.91,17.91,0,0,0,4.37,10.34c8.13,9.35,23.79,14.42,42,14.71,12.14.08,23.18-2.2,31.64-6.28a32.68,32.68,0,0,0,10.59-7.71A17.52,17.52,0,0,0,732,87.49a16.66,16.66,0,0,0-2.77-9.2C726.52,81.81,715.21,95.76,684.81,98.08Zm.55-8.64c12.14.07,23.18-2.2,31.63-6.29a32.9,32.9,0,0,0,10.61-7.72,16.6,16.6,0,0,0,.19-22.72c-8.15-9.36-23.78-14.43-42-14.72-12.13-.08-23.18,2.19-31.63,6.26A33.54,33.54,0,0,0,643.57,52,17.61,17.61,0,0,0,639,63.3a17.52,17.52,0,0,0,4.4,11.42C651.5,84.07,667.18,89.13,685.36,89.44ZM649.94,54.13c4.43-5.4,18.16-10.65,34.23-10.39,10.75.07,20.38,2.36,26.89,5.69a22,22,0,0,1,7.17,5.28,7,7,0,0,1,1.95,4.57,7,7,0,0,1-2,4.56c-4.4,5.39-18.15,10.66-34.23,10.38-10.74-.07-20.37-2.37-26.88-5.69a23,23,0,0,1-7.17-5.26,7.1,7.1,0,0,1-2-4.61A7,7,0,0,1,649.94,54.13Z" class="cls-1" transform="translate(-67.81 -37.99)"/><path d="M234.7,101.48Q228.24,94,216.41,94h-36l-2.68,13.63h36q5.73,0,8.86,3.94a11.41,11.41,0,0,1,2.07,9.67l-.54,2.33-.18,1.62H190.61a33.37,33.37,0,0,0-21.42,7.7,32.48,32.48,0,0,0-11.92,19.54l-.35,1.43q-2.52,11.82,3.85,19.54t18.19,7.7h47.13l12.73-60.57Q241.15,108.92,234.7,101.48Zm-19.54,66H181.83a11.23,11.23,0,0,1-9.06-3.94q-3.32-3.93-2.06-9.68l.36-1.43a15.91,15.91,0,0,1,6-9.68,16.69,16.69,0,0,1,10.66-3.94h33.15ZM315.66,94l-15.24,73.3H266A11.22,11.22,0,0,1,257,163.4c-2.21-2.62-2.89-5.86-2-9.68L267.27,94h-13.8l-12.36,59.68q-2.52,11.84,3.94,19.54T263.33,181h34.59l-1.08,5a17.07,17.07,0,0,1-6.18,9.59,16.33,16.33,0,0,1-10.48,4H233l-2.86,13.61h47.13a32.78,32.78,0,0,0,21.15-7.88A33.81,33.81,0,0,0,310.64,186l19-91.94Z" class="cls-2" transform="translate(-67.81 -37.99)"/><path d="M459.47,181.14H412.33q-11.83,0-18.19-7.7t-3.85-19.54l.36-1.43a32.46,32.46,0,0,1,11.91-19.54,33.41,33.41,0,0,1,21.43-7.7h33.32l.19-1.62.53-2.33a11.41,11.41,0,0,0-2.06-9.67,10.67,10.67,0,0,0-8.87-3.94H408.32L411,94h38.79q11.82,0,18.28,7.44t4.12,19.09Zm-10.94-13.62,5.74-28.67H421.11a16.73,16.73,0,0,0-10.66,3.94,16,16,0,0,0-6,9.68l-.35,1.43q-1.26,5.74,2.06,9.68a11.21,11.21,0,0,0,9.05,3.94Z" class="cls-3" transform="translate(-67.81 -37.99)"/><path d="M549.87,157.84a27.25,27.25,0,0,1-12,17.75,35.67,35.67,0,0,1-20.43,5.91h-46.6l2.87-13.62h46.6q13.79,0,15.77-10l.72-3.22q2.15-10-11.65-10h-21q-11.66,0-17.92-5.92-7.17-6.45-4.85-17.73l.72-3.23a27.21,27.21,0,0,1,12-17.75A35.8,35.8,0,0,1,514.56,94h46.78l-2.69,13.63H511.87q-13.8,0-15.95,10l-.71,3.23q-2,10,11.83,10h21q11.64,0,17.93,5.92,7,6.45,4.65,17.74Z" class="cls-3" transform="translate(-67.81 -37.99)"/><path d="M612.84,181H591q-11.84,0-18.28-7.71t-3.94-19.54L578.43,107h-8.6l3-14h8.6l6.45-31.18h14L595.46,93h29l-3,14h-29l-9.68,46.77c-.83,3.82-.18,7.06,2,9.68a10.92,10.92,0,0,0,9,3.94h21.87Z" class="cls-3" transform="translate(-67.81 -37.99)"/><path d="M172.07,102a32.28,32.28,0,0,1-11.93,19.09q-9.63,7.77-20.94,7.77h-47L81.42,181.14H67.81l24.57-118H153q11.3,0,17.58,7.77t4,19.09Zm-13.6,0,2.47-12c.82-3.77.18-6.95-1.95-9.55a10.77,10.77,0,0,0-8.83-3.88h-47L95,115.4h47a16.09,16.09,0,0,0,10.42-3.89A16.64,16.64,0,0,0,158.47,102Z" class="cls-4" transform="translate(-67.81 -37.99)"/><path d="M435.54,75.45h-57.1a18,18,0,0,0-16.89,13.66l-5.34,26.09h35.63L389,129H353.51l-11,52.27H328.66l19-92.2a34.83,34.83,0,0,1,33.61-27.32h57.1Z" class="cls-3" transform="translate(-67.81 -37.99)"/><path d="M329.9,207.51h4L345,233.27h-5.24l-2.4-5.89H326.16l-2.33,5.89h-5.14Zm5.83,15.94-4-10.49-4,10.49Z" class="cls-3" transform="translate(-67.81 -37.99)"/><path d="M356.62,207.51h9.14a20,20,0,0,1,5.05.65,13.13,13.13,0,0,1,4.59,2.17,11.22,11.22,0,0,1,3.31,4,13.15,13.15,0,0,1,1.28,6.1,12.38,12.38,0,0,1-1.28,5.82,12,12,0,0,1-3.31,4,14,14,0,0,1-4.59,2.31,18.11,18.11,0,0,1-5.05.74h-9.14ZM365,229.27a15.39,15.39,0,0,0,3.56-.42,9.31,9.31,0,0,0,3.23-1.42,7.57,7.57,0,0,0,2.34-2.71,9.11,9.11,0,0,0,.91-4.33,9.67,9.67,0,0,0-.91-4.51,7.24,7.24,0,0,0-2.34-2.73,8.67,8.67,0,0,0-3.23-1.35,17.86,17.86,0,0,0-3.56-.37h-3.82v17.84Z" class="cls-3" transform="translate(-67.81 -37.99)"/><path d="M384.43,207.51h8.4a18.87,18.87,0,0,1,4,.39,8.31,8.31,0,0,1,3.05,1.32,6.07,6.07,0,0,1,2,2.32,7.8,7.8,0,0,1,.69,3.43,7.43,7.43,0,0,1-.8,3.6,6.59,6.59,0,0,1-2.16,2.35,9.71,9.71,0,0,1-3.19,1.29,17.72,17.72,0,0,1-3.86.4H389v10.66h-4.58Zm7.79,11.24a13.37,13.37,0,0,0,2.14-.16,5.9,5.9,0,0,0,1.82-.59,3.29,3.29,0,0,0,1.28-1.14,3.48,3.48,0,0,0,.47-1.89A3,3,0,0,0,396.2,212a5.45,5.45,0,0,0-1.78-.53,15.5,15.5,0,0,0-2.06-.13H389v7.39Z" class="cls-3" transform="translate(-67.81 -37.99)"/><path d="M405.39,220.32a14.43,14.43,0,0,1,1-5.59,12.28,12.28,0,0,1,2.87-4.24,12.65,12.65,0,0,1,4.37-2.69,15.41,15.41,0,0,1,5.51-1,15.66,15.66,0,0,1,5.57,1,12.82,12.82,0,0,1,4.41,2.69,12.19,12.19,0,0,1,2.89,4.24,14.43,14.43,0,0,1,1,5.59,14.23,14.23,0,0,1-1,5.51,12.78,12.78,0,0,1-2.89,4.29,13.1,13.1,0,0,1-4.41,2.81,15.24,15.24,0,0,1-5.57,1,15,15,0,0,1-5.51-1,12.73,12.73,0,0,1-7.24-7.1A14.23,14.23,0,0,1,405.39,220.32Zm5,0a11,11,0,0,0,.63,3.8,8.94,8.94,0,0,0,1.82,3,8.5,8.5,0,0,0,2.81,2,8.87,8.87,0,0,0,3.58.71,9,9,0,0,0,3.6-.71,8.38,8.38,0,0,0,2.83-2,8.92,8.92,0,0,0,1.81-3,10.79,10.79,0,0,0,.64-3.8,10.46,10.46,0,0,0-.64-3.72,8.9,8.9,0,0,0-1.8-3,8.19,8.19,0,0,0-2.8-2,8.8,8.8,0,0,0-3.64-.73,8.67,8.67,0,0,0-3.62.73,8.35,8.35,0,0,0-2.79,2,9.24,9.24,0,0,0-1.8,3A10.68,10.68,0,0,0,410.38,220.32Z" class="cls-3" transform="translate(-67.81 -37.99)"/><path d="M465.23,213.55a5.81,5.81,0,0,0-2.66-2,8.88,8.88,0,0,0-6.84.09,8.27,8.27,0,0,0-2.82,2,8.79,8.79,0,0,0-1.82,3,10.46,10.46,0,0,0-.64,3.72,11.27,11.27,0,0,0,.62,3.85,8.73,8.73,0,0,0,1.76,3,8,8,0,0,0,2.75,1.94,8.86,8.86,0,0,0,3.6.7,8,8,0,0,0,3.68-.82,7.14,7.14,0,0,0,2.58-2.17l3.68,2.58a11.74,11.74,0,0,1-4.19,3.34,13.37,13.37,0,0,1-5.78,1.18,15.06,15.06,0,0,1-5.55-1,12.6,12.6,0,0,1-7.19-7.1,14.42,14.42,0,0,1-1-5.51,14.07,14.07,0,0,1,1.07-5.59,12.47,12.47,0,0,1,3-4.24,13.06,13.06,0,0,1,4.42-2.69,15.61,15.61,0,0,1,5.54-1,14.75,14.75,0,0,1,2.58.24,12.94,12.94,0,0,1,2.58.72,12.57,12.57,0,0,1,2.33,1.22,7.57,7.57,0,0,1,1.86,1.75Z" class="cls-3" transform="translate(-67.81 -37.99)"/><path d="M470.39,224.47a9.19,9.19,0,0,1,.75-3.77,8.71,8.71,0,0,1,5-4.75,10.79,10.79,0,0,1,7.43,0,8.71,8.71,0,0,1,5,4.75,9.36,9.36,0,0,1,.74,3.77,9.48,9.48,0,0,1-.74,3.78,9,9,0,0,1-2,2.93,9.31,9.31,0,0,1-3,1.91,10.35,10.35,0,0,1-7.43,0,9.31,9.31,0,0,1-3-1.91,9,9,0,0,1-2-2.93A9.31,9.31,0,0,1,470.39,224.47Zm4.45,0a7.18,7.18,0,0,0,.3,2,5.7,5.7,0,0,0,.93,1.82,4.79,4.79,0,0,0,1.57,1.31,5.24,5.24,0,0,0,4.51,0,4.89,4.89,0,0,0,1.57-1.31,5.48,5.48,0,0,0,.92-1.82,6.86,6.86,0,0,0,.31-2,6.65,6.65,0,0,0-.31-2,5.63,5.63,0,0,0-.92-1.81,5.14,5.14,0,0,0-6.08-1.29,4.73,4.73,0,0,0-1.57,1.29,5.86,5.86,0,0,0-.93,1.81A7,7,0,0,0,474.84,224.47Z" class="cls-3" transform="translate(-67.81 -37.99)"/><path d="M514.47,215.29a6.57,6.57,0,0,1,2.93.6,5.74,5.74,0,0,1,2,1.59,6.4,6.4,0,0,1,1.15,2.25,9.63,9.63,0,0,1,.36,2.62v10.92h-4.36v-9.68a12.92,12.92,0,0,0-.11-1.6,4.54,4.54,0,0,0-.48-1.51,3,3,0,0,0-1-1.11,2.94,2.94,0,0,0-1.69-.44,3.37,3.37,0,0,0-1.75.44,3.92,3.92,0,0,0-1.2,1.13,5,5,0,0,0-.69,1.55,6.59,6.59,0,0,0-.22,1.69v9.53H505V222.72a4.48,4.48,0,0,0-.78-2.71,2.83,2.83,0,0,0-2.46-1.08,3.39,3.39,0,0,0-1.71.42,3.69,3.69,0,0,0-1.18,1.07,5.16,5.16,0,0,0-.69,1.52,6.34,6.34,0,0,0-.24,1.73v9.6h-4.36V215.8h4.14v2.81h.08a5,5,0,0,1,.78-1.24,6.23,6.23,0,0,1,1.16-1.06,5.7,5.7,0,0,1,1.55-.74,6.21,6.21,0,0,1,1.93-.28,6,6,0,0,1,3.39.91,6.14,6.14,0,0,1,2.07,2.41,6.22,6.22,0,0,1,2.33-2.46A6.63,6.63,0,0,1,514.47,215.29Z" class="cls-3" transform="translate(-67.81 -37.99)"/><path d="M530.19,215.8v2.44h.11a6.94,6.94,0,0,1,.86-1,5.65,5.65,0,0,1,1.29-.94,8.22,8.22,0,0,1,1.73-.69,7.59,7.59,0,0,1,2.16-.28,8.13,8.13,0,0,1,6.12,2.66,9.08,9.08,0,0,1,1.75,2.91,10.41,10.41,0,0,1,.62,3.61,10.54,10.54,0,0,1-.61,3.62,8.9,8.9,0,0,1-1.71,2.95,8.3,8.3,0,0,1-2.69,2,8.39,8.39,0,0,1-3.58.74,7.59,7.59,0,0,1-3.41-.76,5.77,5.77,0,0,1-2.38-2.08h-.07V242H526V215.8Zm10.19,8.67a7,7,0,0,0-.3-2,5.86,5.86,0,0,0-.93-1.81,4.83,4.83,0,0,0-1.57-1.29,4.72,4.72,0,0,0-2.22-.49,4.49,4.49,0,0,0-2.15.51,5.59,5.59,0,0,0-1.62,1.31,5.68,5.68,0,0,0-1,1.82,6.34,6.34,0,0,0-.35,2,6.18,6.18,0,0,0,.35,2,5.69,5.69,0,0,0,1,1.8,5.37,5.37,0,0,0,1.62,1.29,5,5,0,0,0,4.37,0,4.89,4.89,0,0,0,1.57-1.31,5.7,5.7,0,0,0,.93-1.82A7.18,7.18,0,0,0,540.38,224.47Z" class="cls-3" transform="translate(-67.81 -37.99)"/><path d="M559.89,231.05h-.11a4.77,4.77,0,0,1-2.11,1.91,7.11,7.11,0,0,1-3.31.75,9.58,9.58,0,0,1-2.2-.27,6.52,6.52,0,0,1-2.11-.91,5.15,5.15,0,0,1-1.6-1.68,4.74,4.74,0,0,1-.64-2.56,4.34,4.34,0,0,1,1.11-3.13,7.21,7.21,0,0,1,2.86-1.79,16,16,0,0,1,3.87-.81q2.13-.21,4.17-.21v-.43a2.69,2.69,0,0,0-1.18-2.42,5,5,0,0,0-2.82-.79,6.29,6.29,0,0,0-2.66.59,7.16,7.16,0,0,0-2.11,1.42l-2.26-2.66a9.89,9.89,0,0,1,3.44-2.07,11.55,11.55,0,0,1,3.95-.7A9.66,9.66,0,0,1,560,216a6.27,6.27,0,0,1,2.38,1.71,6,6,0,0,1,1.22,2.37,10.2,10.2,0,0,1,.35,2.62v10.62h-4.08Zm-.07-5.75h-1q-1.07,0-2.22.09a10,10,0,0,0-2.15.4,4.67,4.67,0,0,0-1.64.88,1.94,1.94,0,0,0-.65,1.54,1.87,1.87,0,0,0,.27,1,2,2,0,0,0,.71.67,3.11,3.11,0,0,0,1,.37,5.84,5.84,0,0,0,1.09.11,4.11,4.11,0,0,0,4.59-4.48Z" class="cls-3" transform="translate(-67.81 -37.99)"/><path d="M569.06,215.8h4.15v2.81h.08a5.57,5.57,0,0,1,2-2.32,5.83,5.83,0,0,1,3.4-1,6.57,6.57,0,0,1,2.93.6,5.74,5.74,0,0,1,2,1.59,6.4,6.4,0,0,1,1.15,2.25,9.63,9.63,0,0,1,.36,2.62v10.92h-4.37v-9.68a11.23,11.23,0,0,0-.11-1.6,4.31,4.31,0,0,0-.47-1.51,3,3,0,0,0-1-1.11,2.94,2.94,0,0,0-1.69-.44,3.74,3.74,0,0,0-1.82.42,4,4,0,0,0-1.26,1.07,5,5,0,0,0-.74,1.52,6,6,0,0,0-.26,1.73v9.6h-4.37Z" class="cls-3" transform="translate(-67.81 -37.99)"/><path d="M587.12,215.8H592l4.87,12.71h.08l4.33-12.71h4.55L597.53,237a16.32,16.32,0,0,1-1,2.13,6.12,6.12,0,0,1-1.31,1.57,5.36,5.36,0,0,1-1.8,1,8.37,8.37,0,0,1-2.5.33,10.6,10.6,0,0,1-1.11-.06,6.65,6.65,0,0,1-1.14-.2L589,238a4.63,4.63,0,0,0,.86.2,5.27,5.27,0,0,0,.78.05,3.53,3.53,0,0,0,1.16-.16,1.9,1.9,0,0,0,.8-.51,3.52,3.52,0,0,0,.59-.86c.16-.34.35-.74.54-1.2l.87-2.22Z" class="cls-3" transform="translate(-67.81 -37.99)"/></svg>