s<svg width="27px" height="25px" viewBox="0 0 27 25" version="1.1" xmlns="http://www.w3.org/2000/svg" xmlns:xlink="http://www.w3.org/1999/xlink">
    <g id="My-Plan-Icons" stroke="none" stroke-width="1" fill="none" fill-rule="evenodd">
        <g id="recipes-tab-icon-white" fill="#FFFFFF" fill-rule="nonzero">
            <path d="M12.4118644,6.8029661 C12.4360169,6.91228814 12.479661,6.98644068 12.529661,6.98644068 L14.2949153,6.98644068 C14.3449153,6.98644068 14.3889831,6.91228814 14.4127119,6.80254237 C15.2754237,6.46822034 15.8779661,5.69957627 15.8779661,4.69449153 L10.9461864,4.69449153 C10.9461864,5.70042373 11.5491525,6.46822034 12.4118644,6.8029661 Z" id="Path"></path>
            <polygon id="Path" points="16.1923729 3.13050847 15.8779661 2.88008475 14.3355932 4.42288136 14.9 4.42288136"></polygon>
            <path d="M5.9779661,15.0427966 L16.7822034,15.0427966 C16.9190678,15.0427966 17.0300847,14.9313559 17.0300847,14.7940678 C17.0300847,14.6572034 16.9190678,14.5461864 16.7822034,14.5461864 L5.9779661,14.5461864 C5.84110169,14.5461864 5.72966102,14.6572034 5.72966102,14.7940678 C5.72966102,14.9313559 5.84110169,15.0427966 5.9779661,15.0427966 Z" id="Path"></path>
            <path d="M5.9779661,13.9771186 L16.7822034,13.9771186 C16.9190678,13.9771186 17.0300847,13.865678 17.0300847,13.7288136 C17.0300847,13.5915254 16.9190678,13.4800847 16.7822034,13.4800847 L5.9779661,13.4800847 C5.84110169,13.4800847 5.72966102,13.5915254 5.72966102,13.7288136 C5.72966102,13.865678 5.84110169,13.9771186 5.9779661,13.9771186 Z" id="Path"></path>
            <path d="M5.9779661,12.9110169 L16.7822034,12.9110169 C16.9190678,12.9110169 17.0300847,12.7995763 17.0300847,12.6631356 C17.0300847,12.5254237 16.9190678,12.4144068 16.7822034,12.4144068 L5.9779661,12.4144068 C5.84110169,12.4144068 5.72966102,12.5254237 5.72966102,12.6631356 C5.72966102,12.7995763 5.84110169,12.9110169 5.9779661,12.9110169 Z" id="Path"></path>
            <path d="M5.9779661,11.8449153 L16.7822034,11.8449153 C16.9190678,11.8449153 17.0300847,11.7338983 17.0300847,11.5961864 C17.0300847,11.4597458 16.9190678,11.3483051 16.7822034,11.3483051 L5.9779661,11.3483051 C5.84110169,11.3483051 5.72966102,11.4597458 5.72966102,11.5961864 C5.72966102,11.7338983 5.84110169,11.8449153 5.9779661,11.8449153 Z" id="Path"></path>
            <path d="M5.9779661,10.7792373 L16.7822034,10.7792373 C16.9190678,10.7792373 17.0300847,10.6682203 17.0300847,10.5305085 C17.0300847,10.3940678 16.9190678,10.2830508 16.7822034,10.2830508 L5.9779661,10.2830508 C5.84110169,10.2830508 5.72966102,10.3944915 5.72966102,10.5305085 C5.72966102,10.6682203 5.84110169,10.7792373 5.9779661,10.7792373 Z" id="Path"></path>
            <path d="M5.9779661,9.71271186 L16.7822034,9.71271186 C16.9190678,9.71271186 17.0300847,9.60169492 17.0300847,9.46440678 C17.0300847,9.32754237 16.9190678,9.21610169 16.7822034,9.21610169 L5.9779661,9.21610169 C5.84110169,9.21610169 5.72966102,9.32754237 5.72966102,9.46440678 C5.72966102,9.60169492 5.84110169,9.71271186 5.9779661,9.71271186 Z" id="Path"></path>
            <path d="M5.9779661,8.64745763 L16.7822034,8.64745763 C16.9190678,8.64745763 17.0300847,8.53644068 17.0300847,8.39915254 C17.0300847,8.26144068 16.9190678,8.15042373 16.7822034,8.15042373 L5.9779661,8.15042373 C5.84110169,8.15042373 5.72966102,8.26144068 5.72966102,8.39915254 C5.72966102,8.53644068 5.84110169,8.64745763 5.9779661,8.64745763 Z" id="Path"></path>
            <path d="M24.3461864,15.784322 L26.7995763,12.2021186 C27.1516949,11.7088983 27.0364407,11.0207627 26.5432203,10.6682203 C26.0652542,10.3283898 25.3478814,10.45 25.0097458,10.9254237 L21.8542373,15.3487288 C21.129661,15.2635593 20.3567797,15.2029661 19.5478814,15.1686441 C19.6588983,15.1728814 19.7754237,15.1724576 19.8855932,15.1779661 L19.8855932,2.95932203 C19.8855932,1.55889831 18.825,0.419915254 17.5220339,0.419915254 L9.62542373,0.388559322 C9.62542373,0.388559322 9.03771186,0.422457627 8.79533898,0.664830508 L3.15127119,6.30805085 C2.93432203,6.525 2.87415254,7.06610169 2.87415254,7.06610169 L2.87415254,17.7305085 C2.31991525,17.8419492 1.80550847,18.0444915 1.38432203,18.3436441 C0.694491525,18.8347458 0.302966102,19.5313559 0.310169492,20.2542373 C0.324576271,21.6855932 1.83008475,22.8067797 3.73813559,22.8067797 L3.78601695,22.8067797 C4.48008475,22.8004237 5.07415254,22.6347458 5.54025424,22.3427966 C5.83177966,23.8067797 6.76059322,24.6809322 8.06016949,24.6809322 C8.21440678,24.6809322 8.37245763,24.6677966 8.53135593,24.6419492 C9.25084746,24.5241525 9.8529661,24.1559322 10.2262712,23.6059322 C10.5597458,23.1148305 10.7050847,22.4902542 10.6601695,21.7822034 L11.1665254,21.7822034 C12.4851695,23.2936441 14.5983051,24.6902542 17.9423729,24.8063559 C18.0822034,24.8110169 18.2211864,24.8139831 18.3567797,24.8139831 C21.8262712,24.8139831 23.870339,23.259322 24.9855932,21.9262712 C26.2792373,20.3775424 26.8338983,18.5216102 26.8326271,17.740678 C26.8334746,17.7258475 26.8364407,17.7127119 26.8364407,17.6983051 C26.8372881,16.6173729 25.5338983,16.0885593 24.3461864,15.784322 Z M25.6707627,11.3974576 C25.7254237,11.3207627 25.8105932,11.2766949 25.9050847,11.2766949 C25.9470339,11.2766949 26.009322,11.2860169 26.0720339,11.329661 C26.2008475,11.4220339 26.2309322,11.6021186 26.1338983,11.7368644 L21.5330508,18.4550847 C21.5317797,18.4550847 21.529661,18.4550847 21.5283898,18.4555085 C21.4288136,18.4385593 21.3423729,18.4381356 21.2944915,18.4381356 C21.1131356,18.4381356 20.9220339,18.4635593 20.7368644,18.4877119 C20.6915254,18.4936441 20.6457627,18.5 20.6008475,18.5050847 L25.6707627,11.3974576 Z M8.22669492,2.82838983 L8.22669492,4.67245763 C8.22669492,5.38008475 7.52627119,5.9559322 6.66398305,5.9559322 L5.09872881,5.9559322 L8.22669492,2.82838983 Z M3.775,21.5894068 L3.73898305,21.5894068 C2.54788136,21.5894068 1.53601695,20.9724576 1.52881356,20.2419492 C1.52415254,19.8050847 1.87881356,19.4872881 2.09110169,19.3368644 C2.51737288,19.0330508 3.12118644,18.8555085 3.78305085,18.8491525 C4.84618644,18.8491525 5.43686441,19.3292373 5.44533898,20.2025424 C5.45423729,21.0860169 4.86101695,21.5788136 3.775,21.5894068 Z M9.21949153,22.9211864 C8.98305085,23.2690678 8.60805085,23.395339 8.33432203,23.440678 C8.24110169,23.4555085 8.14872881,23.4635593 8.06059322,23.4635593 C7.14237288,23.4635593 6.81822034,22.6682203 6.70932203,22.0008475 C6.60762712,21.3830508 6.67838983,20.7572034 6.90338983,20.2855932 C7.01525424,20.0504237 7.26779661,19.6466102 7.69830508,19.5754237 C7.74152542,19.5682203 7.78432203,19.5652542 7.82754237,19.5652542 C8.43220339,19.5652542 9.21059322,20.3262712 9.41271186,21.5563559 C9.50635593,22.1258475 9.43940678,22.5978814 9.21949153,22.9211864 Z M7.50084746,18.3741525 C7.0779661,18.4440678 6.69025424,18.6529661 6.36737288,18.9682203 C6.00550847,18.2864407 5.32881356,17.8292373 4.43050847,17.6830508 L4.43050847,7.03728814 L6.81822034,7.03728814 C8.21779661,7.03728814 9.35677966,5.97711864 9.35677966,4.67415254 L9.35677966,1.97627119 L17.5224576,1.97627119 C17.9677966,1.97627119 18.3300847,2.41694915 18.3300847,2.95889831 L18.3300847,15.134322 C18.3944915,15.134322 18.4563559,15.1394068 18.5207627,15.1398305 C18.3381356,15.1364407 18.1588983,15.1309322 17.9737288,15.1309322 C15.8851695,15.1309322 13.9131356,15.3025424 12.3716102,15.6114407 L5.9779661,15.6114407 C5.84110169,15.6114407 5.72966102,15.7228814 5.72966102,15.8597458 C5.72966102,15.9966102 5.84110169,16.1080508 5.9779661,16.1080508 L10.5838983,16.1080508 C10.2105932,16.259322 9.87118644,16.4461864 9.61101695,16.6771186 L5.9779661,16.6771186 C5.84110169,16.6771186 5.72966102,16.7885593 5.72966102,16.925 C5.72966102,17.0627119 5.84110169,17.1737288 5.9779661,17.1737288 L9.22923729,17.1737288 C9.15466102,17.3326271 9.10974576,17.5050847 9.10974576,17.6974576 C9.10974576,17.7131356 9.11228814,17.7275424 9.11355932,17.7432203 L5.9779661,17.7432203 C5.84110169,17.7432203 5.72966102,17.8542373 5.72966102,17.9911017 C5.72966102,18.1279661 5.84110169,18.2389831 5.9779661,18.2389831 L9.22288136,18.2389831 C9.28813559,18.4618644 9.38940678,18.7686441 9.53771186,19.1283898 C8.96822034,18.5516949 8.24533898,18.2508475 7.50084746,18.3741525 Z M10.9889831,17.6983051 C11.8444915,17.2961864 14.2440678,16.7555085 17.9733051,16.7555085 C19.0144068,16.7555085 19.9419492,16.7995763 20.770339,16.8694915 L19.5555085,18.5733051 L19.5334746,18.6067797 C19.0415254,18.6279661 18.5237288,18.6411017 17.9737288,18.6411017 C14.2440678,18.640678 11.8444915,18.0995763 10.9889831,17.6983051 Z M17.9995763,23.1838983 C14.3436441,23.0572034 12.475,21.1605932 11.5521186,19.5991525 C11.7415254,19.6491525 11.9283898,19.6932203 12.1072034,19.7322034 C13.6830508,20.0754237 15.7661017,20.2644068 17.9733051,20.2644068 C20.1800847,20.2644068 22.2639831,20.0754237 23.8394068,19.7322034 C24.0877119,19.6779661 24.3516949,19.6152542 24.6161017,19.5394068 C23.8118644,21.1775424 21.990678,23.3254237 17.9995763,23.1838983 Z M22.6182203,18.3076271 L23.3584746,17.2262712 C24.0978814,17.3792373 24.6385593,17.5483051 24.9572034,17.6983051 C24.5398305,17.8944915 23.75,18.1237288 22.6182203,18.3076271 Z" id="Shape"></path>
        </g>
    </g>
</svg>