<?xml version="1.0" encoding="UTF-8"?>
<svg width="64px" height="64px" viewBox="0 0 64 64" version="1.1" xmlns="http://www.w3.org/2000/svg" xmlns:xlink="http://www.w3.org/1999/xlink">
    <!-- Generator: Sketch 54.1 (76490) - https://sketchapp.com -->
    <title>Group 7 Copy</title>
    <desc>Created with Sketch.</desc>
    <g id="Homepage-and-Style-Guide" stroke="none" stroke-width="1" fill="none" fill-rule="evenodd">
        <g id="Home" transform="translate(-688.000000, -688.000000)" fill-rule="nonzero">
            <g id="Group-7-Copy" transform="translate(688.000000, 688.000000)">
                <path d="M31.9995329,63.9999989 C44.9428874,63.9999985 56.6116004,56.2026683 61.5640353,44.2442479 C66.5164702,32.2858276 63.777211,18.5216101 54.6236954,9.37045837 C45.4701797,0.219306633 31.7052553,-2.51639722 19.7481147,2.43912642 C7.79097415,7.39465006 -0.00334173367,19.0653768 1.07481685e-06,32.008731 C7.91659021e-07,40.4947749 3.37163409,48.6331317 9.37294809,54.6328959 C15.3742621,60.63266 23.5134895,64.0021911 31.9995329,63.9999989 L31.9995329,63.9999989 Z" id="Path-Copy" fill="#FF2900"></path>
                <path d="M20.0001805,36.7396386 C20.0000624,33.6943323 20.6072046,30.6804904 21.7850583,27.8795397 C22.9336929,25.0833261 24.5499758,22.5096181 26.5625334,20.2720684 C28.5403173,18.0761005 30.9098227,16.279832 33.545945,14.978102 C36.1651016,13.668547 39.0472968,12.9915847 41.9671177,13.0001594 C42.4378798,13.008759 42.8995465,13.1332091 43.3124514,13.362817 C43.7697964,13.6045886 43.9984689,13.948488 43.9984689,14.3945151 C44.0197184,14.9009001 43.8189186,15.3908432 43.4500657,15.7325964 C43.1253375,16.0501734 42.69331,16.2298576 42.2423463,16.2348979 C41.9274436,16.2367375 41.6135321,16.1989326 41.3078015,16.122349 L40.4287132,15.8993355 C40.1356838,15.8256924 39.8241689,15.7513545 39.4941684,15.6763219 C39.0966206,15.595963 38.6917501,15.5589314 38.286449,15.5658573 C36.4570266,15.5655622 34.6658244,16.0971784 33.1248863,17.0977728 C31.4985252,18.13381 30.0665671,19.4549187 28.8958144,20.9994677 C27.669803,22.6108225 26.6804677,24.3940219 25.9586737,26.2934341 C25.240919,28.0992674 24.8057082,30.0078395 24.6687965,31.950058 C25.7001959,31.1707872 26.8003031,30.4898241 27.9551078,29.915841 C29.0895343,29.3039457 30.34932,28.9699002 31.6337226,28.9404172 C33.0430455,28.9380032 34.4464685,29.1251295 35.8073379,29.496909 C37.1251637,29.8524024 38.3518925,30.492231 39.4037949,31.3727238 C40.4971877,32.3044949 41.3585273,33.4848824 41.917823,34.8179705 C42.5394836,36.2491477 42.8503139,38.041593 42.8503139,40.1953064 C42.8464694,41.5169126 42.614281,42.8275982 42.1642964,44.067822 C41.7101074,45.3454934 41.0121523,46.5197709 40.1103518,47.5234898 C39.1487894,48.5768437 37.991443,49.4268435 36.7049117,50.0245763 C35.3493083,50.6734693 33.7746174,50.9986105 31.9808392,51 C29.8570605,51 28.0358963,50.6192791 26.5173466,49.8578372 C25.0635931,49.1466031 23.7966143,48.0959284 22.8202464,46.791922 C21.8349238,45.4398017 21.117187,43.9067138 20.7067374,42.2774609 C20.232296,40.4710732 19.9947282,38.6090742 20.0001805,36.7396386 L20.0001805,36.7396386 Z M24.8331121,38.4674725 C24.8331121,40.6225753 25.0891705,42.405989 25.6012873,43.8177133 C26.1134042,45.2294377 26.7295876,46.3535371 27.4498375,47.1900116 C28.0629598,47.9490573 28.8441386,48.5503671 29.7297159,48.9449406 C30.3696657,49.2405526 31.0588403,49.410968 31.7610671,49.4472421 C32.7850312,49.4779904 33.7958701,49.2072566 34.6715066,48.6677369 C35.459432,48.1654029 36.1256673,47.4893411 36.6207,46.6897943 C37.1310917,45.8497157 37.4932169,44.9257601 37.6908051,43.9594416 C37.9075372,42.9621155 38.017717,41.9439916 38.0194362,40.9227057 C38.0200695,39.706143 37.9003404,38.4925889 37.6620499,37.3002988 C37.4424395,36.1612209 37.0340783,35.0681769 36.4543305,34.0676445 C35.8973663,33.1146597 35.1223998,32.3118202 34.1949914,31.7270444 C33.2611313,31.1337311 32.1170842,30.8363797 30.7628501,30.8349903 C29.8463617,30.8154428 28.9427758,31.0565837 28.1543404,31.531126 C27.4097862,31.9901449 26.7726781,32.6082008 26.2873048,33.3423295 C25.7898105,34.0919787 25.418471,34.9202706 25.1884445,35.7933942 C24.9529263,36.6667991 24.8334256,37.5682126 24.8331121,38.4737252 L24.8331121,38.4674725 Z" id="Shape-Copy" fill="#FFFFFF"></path>
            </g>
        </g>
    </g>
</svg>