<?xml version="1.0" encoding="UTF-8"?>
<svg width="42px" height="40px" viewBox="0 0 42 40" version="1.1" xmlns="http://www.w3.org/2000/svg" xmlns:xlink="http://www.w3.org/1999/xlink">
    <!-- Generator: Sketch 63.1 (92452) - https://sketch.com -->
    <title>tab-icon-3</title>
    <desc>Created with Sketch.</desc>
    <g id="My-Plan" stroke="none" stroke-width="1" fill="none" fill-rule="evenodd">
        <g id="tab-icon-3">
            <g id="Group-2" transform="translate(4.511639, 0.000000)">
                <path d="M0.860887479,9.19892763 C0.466819002,9.21141757 0.128055725,9.48197088 0.0287388963,9.86352314 C-0.0705779322,10.2450754 0.093282083,10.6464599 0.431249702,10.8494965 L7.62416303,15.304741 C7.89431746,15.4782227 8.23702321,15.4925572 8.52072118,15.3422415 C8.80441916,15.1919259 8.9850236,14.9003187 8.99320344,14.5793632 C9.00138327,14.2584077 8.83586738,13.9579794 8.56019459,13.7934076 L1.36728126,9.33816319 C1.21635774,9.24181174 1.03985572,9.1932816 0.860887479,9.19892763 L0.860887479,9.19892763 Z" id="Path" fill="#FF0553"></path>
                <path d="M26.5739715,2.77766097 C26.2492134,2.76762664 25.9448507,2.93556601 25.7801759,3.21565652 L21.3663048,10.4809187 C21.1948569,10.7525368 21.1832636,11.0955164 21.3359788,11.3780917 C21.488694,11.660667 21.7819643,11.838886 22.103121,11.8442804 C22.4242777,11.8496749 22.7233679,11.6814058 22.885487,11.4041187 L27.2998648,4.13838986 C27.4690282,3.86853703 27.4809048,3.52880654 27.330999,3.24779937 C27.1810931,2.96679221 26.8923124,2.78745013 26.5739715,2.77766097 L26.5739715,2.77766097 Z" id="Path" fill="#FF0553"></path>
                <path d="M33.2521315,9.19843766 C33.082119,9.19817309 32.9155957,9.2466643 32.7723048,9.33816319 L25.5793893,13.7934076 C25.3036294,13.9579361 25.1380315,14.2583911 25.146184,14.5793999 C25.1543365,14.9004087 25.3349721,15.1920705 25.618728,15.3423892 C25.9024839,15.4927079 26.2452503,15.4783164 26.515407,15.304741 L33.7083181,10.8494965 C34.0505495,10.6439433 34.2137835,10.235461 34.1074636,9.85066178 C34.0011437,9.46586251 33.6513481,9.19913016 33.2521315,9.19843766 L33.2521315,9.19843766 Z" id="Path" fill="#FF0553"></path>
                <path d="M17.0651075,0.000105411671 C16.5744719,0.00750574216 16.1826192,0.411037367 16.1896275,0.901678745 L16.1896275,8.76830541 C16.1897827,9.25918979 16.5877666,9.6570479 17.078651,9.6570479 C17.5695354,9.6570479 17.9675194,9.25918979 17.9676746,8.76830541 L17.9676746,0.901678745 C17.9711084,0.661357362 17.8770872,0.429886123 17.7070434,0.260029538 C17.5369996,0.0901729522 17.3054249,-0.00359317237 17.0651075,0.00010541167 L17.0651075,0.000105411671 Z" id="Path" fill="#FF0553"></path>
                <circle id="Oval" stroke="#FF0553" stroke-width="2" cx="17.0883608" cy="19.6485099" r="7"></circle>
                <path d="M7.52230481,2.7781543 C7.19303054,2.76535241 6.88368765,2.9357397 6.71852177,3.22088118 C6.5533559,3.50602267 6.55946657,3.85913386 6.73439948,4.13838986 L11.1487773,11.4041187 C11.3109646,11.6812659 11.6100097,11.8494045 11.9310794,11.8439692 C12.252149,11.838534 12.5453318,11.6603698 12.6980455,11.3778919 C12.8507591,11.0954139 12.8392638,10.7525342 12.6679737,10.4809187 L8.25408437,3.21565652 C8.10056421,2.95473424 7.82481354,2.78987376 7.52230481,2.7781543 L7.52230481,2.7781543 Z" id="Path" fill="#FF0553"></path>
            </g>
            <g id="Group-2" transform="translate(21.200000, 27.248510) scale(1, -1) translate(-21.200000, -27.248510) translate(0.000000, 14.848510)" fill="#FF0553">
                <path d="M5.66088748,9.19892763 C5.266819,9.21141757 4.92805572,9.48197088 4.8287389,9.86352314 C4.72942207,10.2450754 4.89328208,10.6464599 5.2312497,10.8494965 L12.424163,15.304741 C12.6943175,15.4782227 13.0370232,15.4925572 13.3207212,15.3422415 C13.6044192,15.1919259 13.7850236,14.9003187 13.7932034,14.5793632 C13.8013833,14.2584077 13.6358674,13.9579794 13.3601946,13.7934076 L6.16728126,9.33816319 C6.01635774,9.24181174 5.83985572,9.1932816 5.66088748,9.19892763 L5.66088748,9.19892763 Z" id="Path"></path>
                <path d="M31.3739715,2.77766097 C31.0492134,2.76762664 30.7448507,2.93556601 30.5801759,3.21565652 L26.1663048,10.4809187 C25.9948569,10.7525368 25.9832636,11.0955164 26.1359788,11.3780917 C26.288694,11.660667 26.5819643,11.838886 26.903121,11.8442804 C27.2242777,11.8496749 27.5233679,11.6814058 27.685487,11.4041187 L32.0998648,4.13838986 C32.2690282,3.86853703 32.2809048,3.52880654 32.130999,3.24779937 C31.9810931,2.96679221 31.6923124,2.78745013 31.3739715,2.77766097 L31.3739715,2.77766097 Z" id="Path"></path>
                <path d="M38.0521315,9.19843766 C37.882119,9.19817309 37.7155957,9.2466643 37.5723048,9.33816319 L30.3793893,13.7934076 C30.1036294,13.9579361 29.9380315,14.2583911 29.946184,14.5793999 C29.9543365,14.9004087 30.1349721,15.1920705 30.418728,15.3423892 C30.7024839,15.4927079 31.0452503,15.4783164 31.315407,15.304741 L38.5083181,10.8494965 C38.8505495,10.6439433 39.0137835,10.235461 38.9074636,9.85066178 C38.8011437,9.46586251 38.4513481,9.19913016 38.0521315,9.19843766 L38.0521315,9.19843766 Z" id="Path"></path>
                <path d="M40.399732,16.3639194 C40.2297195,16.3636549 40.0631962,16.4121461 39.9199054,16.503645 L32.7269898,20.9588894 C32.4512299,21.1234179 32.285632,21.4238728 32.2937845,21.7448816 C32.301937,22.0658905 32.4825727,22.3575523 32.7663286,22.507871 C33.0500845,22.6581897 33.3928508,22.6437982 33.6630076,22.4702227 L40.8559187,18.0149783 C41.19815,17.8094251 41.3613841,17.4009428 41.2550642,17.0161435 C41.1487443,16.6313443 40.7989487,16.3646119 40.399732,16.3639194 L40.399732,16.3639194 Z" id="Path-Copy" transform="translate(36.790372, 19.487605) rotate(31.000000) translate(-36.790372, -19.487605) "></path>
                <path d="M9.70623523,16.1526288 C9.53622273,16.1523642 9.36969943,16.2008554 9.22640856,16.2923543 L2.033493,20.7475987 C1.75773313,20.9121272 1.5921352,21.2125822 1.60028772,21.533591 C1.60844023,21.8545998 1.78907587,22.1462616 2.07283178,22.2965803 C2.35658768,22.446899 2.699354,22.4325075 2.96951078,22.2589321 L10.1624219,17.8036876 C10.5046532,17.5981344 10.6678873,17.1896522 10.5615674,16.8048529 C10.4552475,16.4200536 10.1054519,16.1533213 9.70623523,16.1526288 L9.70623523,16.1526288 Z" id="Path-Copy-2" transform="translate(6.096875, 19.276314) rotate(31.000000) translate(-6.096875, -19.276314) "></path>
                <path d="M21.8651075,0.00010541167 C21.3744719,0.00750574216 20.9826192,0.411037367 20.9896275,0.901678745 L20.9896275,8.76830541 C20.9897827,9.25918979 21.3877666,9.6570479 21.878651,9.6570479 C22.3695354,9.6570479 22.7675194,9.25918979 22.7676746,8.76830541 L22.7676746,0.901678745 C22.7711084,0.661357362 22.6770872,0.429886123 22.5070434,0.260029538 C22.3369996,0.0901729522 22.1054249,-0.00359317237 21.8651075,0.00010541167 L21.8651075,0.00010541167 Z" id="Path"></path>
                <path d="M12.3223048,2.7781543 C11.9930305,2.76535241 11.6836877,2.9357397 11.5185218,3.22088118 C11.3533559,3.50602267 11.3594666,3.85913386 11.5343995,4.13838986 L15.9487773,11.4041187 C16.1109646,11.6812659 16.4100097,11.8494045 16.7310794,11.8439692 C17.052149,11.838534 17.3453318,11.6603698 17.4980455,11.3778919 C17.6507591,11.0954139 17.6392638,10.7525342 17.4679737,10.4809187 L13.0540844,3.21565652 C12.9005642,2.95473424 12.6248135,2.78987376 12.3223048,2.7781543 L12.3223048,2.7781543 Z" id="Path"></path>
            </g>
        </g>
    </g>
</svg>