<?xml version="1.0" encoding="UTF-8"?>
<svg width="50px" height="27px" viewBox="0 0 50 27" version="1.1" xmlns="http://www.w3.org/2000/svg" xmlns:xlink="http://www.w3.org/1999/xlink">
    <!-- Generator: Sketch 63.1 (92452) - https://sketch.com -->
    <title>tab-icon-2</title>
    <desc>Created with Sketch.</desc>
    <g id="My-Plan" stroke="none" stroke-width="1" fill="none" fill-rule="evenodd">
        <g id="tab-icon-2" fill="#FF0553">
            <g id="Group" transform="translate(0.000000, 0.354344)">
                <path d="M4.71565833,11.5836778 C4.22307274,11.5992902 3.79961864,11.9374818 3.6754726,12.4144222 C3.55132657,12.8913625 3.75615159,13.3930932 4.17861111,13.6468889 L13.1697528,19.2159444 C13.5074458,19.4327967 13.935828,19.4507147 14.2904505,19.2628201 C14.6450729,19.0749256 14.8708285,18.7104166 14.8810533,18.3092222 C14.8912781,17.9080279 14.6843832,17.5324924 14.3397922,17.3267778 L5.34865056,11.7577222 C5.15999617,11.6372829 4.93936863,11.5766202 4.71565833,11.5836778 L4.71565833,11.5836778 Z" id="Path"></path>
                <path d="M36.8570133,3.55709444 C36.4510658,3.54455154 36.0706124,3.75447575 35.8647689,4.10458889 L30.34743,13.1861667 C30.1331201,13.5256892 30.1186285,13.9544138 30.3095225,14.3076329 C30.5004165,14.660852 30.8670043,14.8836257 31.2684502,14.8903688 C31.669896,14.8971119 32.0437588,14.6867755 32.2464078,14.3401667 L37.76438,5.25800556 C37.9758342,4.92068953 37.99068,4.49602641 37.8032977,4.14476745 C37.6159154,3.7935085 37.2549395,3.56933089 36.8570133,3.55709444 L36.8570133,3.55709444 Z" id="Path"></path>
                <path d="M24.99132,15.7165556 C20.1791922,15.7165556 16.1195589,19.1044444 15.0954867,23.6506111 L1.55382,23.6506111 C1.15311436,23.6449456 0.780398688,23.8554743 0.578392515,24.2015821 C0.376386342,24.5476899 0.376386342,24.9757545 0.578392515,25.3218623 C0.780398688,25.6679701 1.15311436,25.8784989 1.55382,25.8728333 L48.44618,25.8728333 C48.8468856,25.8784989 49.2196013,25.6679701 49.4216075,25.3218623 C49.6236137,24.9757545 49.6236137,24.5476899 49.4216075,24.2015821 C49.2196013,23.8554743 48.8468856,23.6449456 48.44618,23.6506111 L34.9045133,23.6506111 C33.8745467,19.1108333 29.8192078,15.7165556 24.99132,15.7165556 L24.99132,15.7165556 Z M24.99132,17.9387778 C28.5979856,17.9387778 31.6187911,20.3553333 32.5954856,23.6506111 L17.4045144,23.6506111 C18.3707256,20.3427222 21.3919033,17.9387778 24.99132,17.9387778 Z" id="Shape"></path>
                <path d="M45.2047133,11.5830653 C44.9921977,11.5827346 44.7840436,11.6433486 44.60493,11.7577222 L35.6137856,17.3267778 C35.2690857,17.5324383 35.0620883,17.9080071 35.0722789,18.3092681 C35.0824696,18.7105291 35.3082641,19.0751064 35.662959,19.2630048 C36.0176539,19.4509031 36.4461118,19.4329138 36.7838078,19.2159444 L45.7749467,13.6468889 C46.2027358,13.3899474 46.4067784,12.8793445 46.2738785,12.3983455 C46.1409786,11.9173464 45.7037341,11.5839309 45.2047133,11.5830653 L45.2047133,11.5830653 Z" id="Path"></path>
                <path d="M24.9709333,0.08515 C24.3576388,0.0944004131 23.867823,0.598814945 23.8765833,1.21211667 L23.8765833,11.0454 C23.8767774,11.6590055 24.3742573,12.1563281 24.9878628,12.1563281 C25.6014683,12.1563281 26.0989482,11.6590055 26.0991422,11.0454 L26.0991422,1.21211667 C26.1034345,0.911714938 25.985908,0.62237589 25.7733533,0.410055158 C25.5607985,0.197734426 25.2713302,0.08052677 24.9709333,0.08515 L24.9709333,0.08515 Z" id="Path"></path>
                <path d="M13.04243,3.55771111 C12.6308372,3.54170874 12.2441585,3.75469286 12.0377012,4.11111972 C11.8312439,4.46754657 11.8388822,4.90893556 12.0575483,5.25800556 L17.5755206,14.3401667 C17.7782547,14.6866006 18.1520612,14.8967738 18.5533982,14.8899798 C18.9547353,14.8831857 19.3212137,14.6604805 19.5121058,14.3073831 C19.7029979,13.9542856 19.6886287,13.525686 19.4745161,13.1861667 L13.9571544,4.10458889 C13.7652542,3.77843604 13.4205659,3.57236043 13.04243,3.55771111 L13.04243,3.55771111 Z" id="Path"></path>
            </g>
        </g>
    </g>
</svg>