<?xml version="1.0" encoding="UTF-8"?>
<svg width="36px" height="40px" viewBox="0 0 36 40" version="1.1" xmlns="http://www.w3.org/2000/svg" xmlns:xlink="http://www.w3.org/1999/xlink">
    <!-- Generator: Sketch 63.1 (92452) - https://sketch.com -->
    <title>tab-1-icon</title>
    <desc>Created with Sketch.</desc>
    <g id="My-Plan" stroke="none" stroke-width="1" fill="none" fill-rule="evenodd">
        <g id="tab-1-icon" fill="#FF0553" fill-rule="nonzero">
            <g id="Group">
                <path d="M4.32989691,30.5154639 C4.6185567,30.5154639 4.86597938,30.4742268 5.15463918,30.4329897 C6.88659794,36.0824742 11.9587629,40 17.7319588,40 C23.5051546,40 28.5773196,36.0824742 30.3092784,30.4329897 C30.556701,30.4742268 30.8453608,30.5154639 31.1340206,30.5154639 C33.4020619,30.5154639 35.257732,28.5773196 35.257732,26.2268041 C35.257732,23.8762887 33.4020619,21.9381443 31.1340206,21.9381443 C30.8453608,21.9381443 30.5979381,21.9793814 30.3092784,22.0206186 C28.6597938,16.6597938 24.0824742,12.9072165 18.7216495,12.4948454 C18.6804124,12.4948454 18.6804124,12.4536082 18.6391753,12.4536082 C15.8350515,11.9175258 13.5670103,8 14.1030928,5.19587629 C14.5154639,3.09278351 16.6597938,1.69072165 18.8865979,2.10309278 C20.6185567,2.43298969 21.6494845,3.95876289 21.3195876,5.5257732 C21.0721649,6.72164948 19.8762887,7.50515464 18.5979381,7.25773196 C18.1443299,7.17525773 17.7319588,7.46391753 17.6494845,7.91752577 C17.5670103,8.37113402 17.8556701,8.78350515 18.3092784,8.86597938 C20.4536082,9.2371134 22.5154639,7.87628866 22.9278351,5.81443299 C23.4226804,3.29896907 21.6907216,0.907216495 19.1340206,0.453608247 C16.0412371,-0.12371134 13.0309278,1.8556701 12.4536082,4.82474227 C11.9175258,7.50515464 13.3195876,10.7628866 15.4226804,12.5773196 C10.5979381,13.443299 6.59793814,17.0309278 5.07216495,21.9381443 C4.82474227,21.8969072 4.53608247,21.8556701 4.24742268,21.8556701 C1.97938144,21.8556701 0.12371134,23.7938144 0.12371134,26.1443299 C0.24742268,28.5773196 2.06185567,30.5154639 4.32989691,30.5154639 Z M4.32989691,23.5876289 C4.70103093,23.5876289 5.03092784,23.6701031 5.36082474,23.8350515 C5.77319588,24.0412371 6.26804124,23.8762887 6.4742268,23.4639175 C6.51546392,23.3402062 6.55670103,23.2164948 6.55670103,23.0927835 C7.87628866,17.7731959 12.4948454,14.1030928 17.7319588,14.1030928 C22.9690722,14.1030928 27.5463918,17.814433 28.9072165,23.0927835 C28.9072165,23.2164948 28.9484536,23.3402062 28.9896907,23.4639175 C29.1958763,23.8762887 29.6907216,24.0412371 30.1030928,23.8350515 C30.3917526,23.6701031 30.7628866,23.5876289 31.1340206,23.5876289 C32.4948454,23.5876289 33.6082474,24.7835052 33.6082474,26.2268041 C33.6082474,27.6701031 32.4948454,28.8659794 31.1340206,28.8659794 C30.7628866,28.8659794 30.4329897,28.7835052 30.1030928,28.6185567 C29.6907216,28.4123711 29.1958763,28.5773196 28.9896907,28.9896907 C28.9484536,29.1134021 28.9072165,29.2371134 28.9072165,29.3608247 C27.5876289,34.6391753 22.9690722,38.3505155 17.7319588,38.3505155 C12.4948454,38.3505155 7.87628866,34.6391753 6.55670103,29.3608247 C6.55670103,29.2371134 6.51546392,29.1134021 6.4742268,28.9896907 C6.26804124,28.5773196 5.77319588,28.4123711 5.36082474,28.6185567 C5.07216495,28.7835052 4.70103093,28.8659794 4.32989691,28.8659794 C2.96907216,28.8659794 1.8556701,27.6701031 1.8556701,26.2268041 C1.89690722,24.7835052 2.96907216,23.5876289 4.32989691,23.5876289 Z" id="Shape"></path>
                <path d="M22.3092784,23.0515464 C22.5979381,22.8041237 22.8041237,22.8041237 23.0927835,23.0515464 C23.4226804,23.3402062 23.9587629,23.2989691 24.2474227,22.9278351 C24.5360825,22.556701 24.4948454,22.0618557 24.1237113,21.7731959 C23.2164948,20.9896907 22.1443299,21.0309278 21.2371134,21.7731959 C20.9072165,22.0618557 20.8247423,22.5979381 21.1134021,22.9278351 C21.443299,23.257732 21.9381443,23.3402062 22.3092784,23.0515464 Z" id="Path"></path>
                <path d="M12.371134,23.0515464 C12.6597938,22.8041237 12.8659794,22.8041237 13.1546392,23.0515464 C13.4845361,23.3402062 14.0206186,23.2989691 14.3092784,22.9278351 C14.5979381,22.556701 14.556701,22.0618557 14.185567,21.7731959 C13.2783505,20.9896907 12.2061856,21.0309278 11.2989691,21.7731959 C10.9690722,22.0618557 10.8865979,22.5979381 11.1752577,22.9278351 C11.5051546,23.257732 12.0412371,23.3402062 12.371134,23.0515464 Z" id="Path"></path>
                <path d="M12.0412371,28.2474227 C11.8762887,28.4536082 11.8350515,28.6597938 11.8762887,28.9072165 C12.371134,31.7525773 14.8453608,33.8556701 17.7319588,33.8556701 C20.6185567,33.8556701 23.0927835,31.7938144 23.5876289,28.9072165 C23.628866,28.6597938 23.5463918,28.4123711 23.4226804,28.2474227 C23.257732,28.0412371 23.0515464,27.9587629 22.8041237,27.9587629 L12.7010309,27.9587629 C12.4536082,27.9587629 12.2061856,28.0824742 12.0412371,28.2474227 Z M21.6907216,29.6082474 C21.0309278,31.1752577 19.5051546,32.2061856 17.7319588,32.2061856 C15.9587629,32.2061856 14.4329897,31.1752577 13.7731959,29.6082474 L21.6907216,29.6082474 Z" id="Shape"></path>
            </g>
        </g>
    </g>
</svg>