<?xml version="1.0" encoding="UTF-8"?>
<svg width="40px" height="40px" viewBox="0 0 40 40" version="1.1" xmlns="http://www.w3.org/2000/svg" xmlns:xlink="http://www.w3.org/1999/xlink">
    <!-- Generator: Sketch 63.1 (92452) - https://sketch.com -->
    <title>tab-icon-4</title>
    <desc>Created with Sketch.</desc>
    <g id="My-Plan" stroke="none" stroke-width="1" fill="none" fill-rule="evenodd">
        <g id="tab-icon-4" fill="#FF0553" fill-rule="nonzero">
            <g id="Group">
                <path d="M28.2281059,30.3217923 C26.2810591,31.299389 24.1873727,31.796334 22.0040733,31.796334 C14.3706721,31.796334 8.15478615,25.5804481 8.15478615,17.9470468 C8.15478615,15.7556008 8.65173116,13.6619145 9.6293279,11.7230143 C9.78411405,11.4052953 9.72708758,11.0305499 9.47454175,10.7780041 C9.22199593,10.5254582 8.84725051,10.4684318 8.52953157,10.6232179 C6.00407332,11.8940937 3.87780041,13.8329939 2.3706721,16.2281059 C0.814663951,18.688391 0,21.5315682 0,24.4562118 C0,32.99389 6.94093686,39.9348269 15.4786151,39.9348269 C18.4032587,39.9348269 21.2464358,39.1201629 23.7230143,37.5804481 C26.1181263,36.0733198 28.0570265,33.9470468 29.3279022,31.4215886 C29.4826884,31.1038697 29.4256619,30.7291242 29.1731161,30.4765784 C28.9205703,30.2240326 28.5458248,30.1670061 28.2281059,30.3217923 Z M15.4786151,38.305499 C7.84521385,38.305499 1.6293279,32.089613 1.6293279,24.4562118 C1.6293279,20.0081466 3.72301426,15.9266802 7.20977597,13.3441955 C6.75356415,14.8187373 6.51731161,16.3584521 6.51731161,17.9389002 C6.51731161,26.4765784 13.4582485,33.4175153 21.9959267,33.4175153 C23.5763747,33.4175153 25.1160896,33.1894094 26.5906314,32.7250509 C24.0081466,36.2118126 19.9266802,38.305499 15.4786151,38.305499 Z" id="Shape"></path>
                <path d="M17.5641548,6.45213849 L20.5784114,7.9592668 L22.0855397,10.9735234 C22.2158859,11.2505092 22.5010183,11.4215886 22.8105906,11.4215886 C23.1201629,11.4215886 23.4052953,11.2505092 23.5356415,10.9735234 L25.0427699,7.9592668 L28.0570265,6.45213849 C28.3340122,6.32179226 28.5050916,6.02851324 28.5050916,5.72708758 C28.5050916,5.42566191 28.3340122,5.14052953 28.0570265,5.00203666 L25.0427699,3.49490835 L23.5356415,0.480651731 C23.4052953,0.203665988 23.1120163,0.032586558 22.8105906,0.032586558 C22.509165,0.032586558 22.2240326,0.203665988 22.0855397,0.480651731 L20.5784114,3.49490835 L17.5641548,5.00203666 C17.287169,5.13238289 17.1160896,5.42566191 17.1160896,5.72708758 C17.1160896,6.02851324 17.287169,6.31364562 17.5641548,6.45213849 Z M21.5397149,4.82281059 C21.7026477,4.7413442 21.8248473,4.61099796 21.9063136,4.45621181 L22.8105906,2.65580448 L23.706721,4.44806517 C23.7881874,4.61099796 23.9185336,4.73319756 24.0733198,4.81466395 L25.8737271,5.71894094 L24.089613,6.62321792 C23.9266802,6.70468432 23.8044807,6.83503055 23.7230143,6.9898167 L22.8187373,8.79022403 L21.9144603,6.9898167 C21.8329939,6.82688391 21.7026477,6.70468432 21.5478615,6.62321792 L19.7474542,5.71894094 L21.5397149,4.82281059 Z" id="Shape"></path>
                <path d="M39.4623218,9.07535642 L36.4480652,7.56822811 L34.9409369,4.55397149 C34.8105906,4.27698574 34.5173116,4.10590631 34.2158859,4.10590631 C33.9144603,4.10590631 33.6293279,4.27698574 33.490835,4.55397149 L31.9837067,7.56822811 L28.9694501,9.07535642 C28.6924644,9.20570265 28.5213849,9.49898167 28.5213849,9.80040733 C28.5213849,10.101833 28.6924644,10.3869654 28.9694501,10.5254582 L31.9837067,12.0325866 L33.490835,15.0468432 C33.6211813,15.3238289 33.9063136,15.4949084 34.2158859,15.4949084 C34.5254582,15.4949084 34.8105906,15.3238289 34.9409369,15.0468432 L36.4480652,12.0325866 L39.4623218,10.5254582 C39.7393075,10.395112 39.910387,10.1099796 39.910387,9.80040733 C39.910387,9.49898167 39.7393075,9.21384929 39.4623218,9.07535642 Z M35.4949084,10.6965377 C35.3319756,10.7780041 35.209776,10.9083503 35.1283096,11.0631365 L34.2240326,12.8635438 L33.3197556,11.0631365 C33.2382892,10.9002037 33.107943,10.7780041 32.9531568,10.6965377 L31.1527495,9.79226069 L32.9450102,8.89613035 C33.107943,8.81466395 33.2301426,8.68431772 33.311609,8.52953157 L34.2158859,6.72912424 L35.1283096,8.52138493 C35.209776,8.68431772 35.3401222,8.80651731 35.4949084,8.88798371 L37.2953157,9.79226069 L35.4949084,10.6965377 Z" id="Shape"></path>
                <path d="M31.3156823,17.2219959 L28.3014257,15.7148676 L26.7942974,12.700611 C26.6639511,12.4236253 26.3706721,12.2525458 26.0692464,12.2525458 C25.7678208,12.2525458 25.4826884,12.4236253 25.3441955,12.700611 L23.8370672,15.7148676 L20.8228106,17.2219959 C20.5458248,17.3523422 20.3747454,17.6456212 20.3747454,17.9470468 C20.3747454,18.2484725 20.5458248,18.5336049 20.8228106,18.6720978 L23.8370672,20.1792261 L25.3441955,23.1934827 C25.4745418,23.4704684 25.7596741,23.6415479 26.0692464,23.6415479 C26.3788187,23.6415479 26.6639511,23.4704684 26.7942974,23.1934827 L28.3014257,20.1792261 L31.3156823,18.6720978 C31.592668,18.5417515 31.7637475,18.2484725 31.7637475,17.9470468 C31.7637475,17.6456212 31.592668,17.3604888 31.3156823,17.2219959 Z M27.3482688,18.8431772 C27.185336,18.9246436 27.0631365,19.0549898 26.9816701,19.209776 L26.0773931,21.0101833 L25.1731161,19.209776 C25.0916497,19.0468432 24.9613035,18.9246436 24.8065173,18.8431772 L23.00611,17.9389002 L24.7983707,17.0427699 C24.9613035,16.9613035 25.0835031,16.8309572 25.1649695,16.6761711 L26.0692464,14.8757637 L26.9816701,16.6680244 C27.0631365,16.8309572 27.1934827,16.9531568 27.3482688,17.0346232 L29.1486762,17.9389002 L27.3482688,18.8431772 Z" id="Shape"></path>
            </g>
        </g>
    </g>
</svg>