<svg xmlns="http://www.w3.org/2000/svg" xmlns:xlink="http://www.w3.org/1999/xlink" width="42" height="42" version="1.1" viewBox="0 0 42 42"><title>tips-icon</title><g id="My-Plan---Desktop-+-Mobile" fill="none" fill-rule="evenodd" stroke="none" stroke-width="1"><g id="Day-Plan--Tab1---Tablet" fill="#418AD0" transform="translate(-30.000000, -912.000000)"><g id="Group-9" transform="translate(21.000000, 902.000000)"><g id="tips-icon" transform="translate(30.041265, 30.476190) scale(-1, 1) translate(-30.041265, -30.476190) translate(10.013755, 10.000000)"><g id="Group" transform="translate(0.000000, 0.303724)"><path id="Shape" d="M20.0275103,0.172466667 C8.97791802,0.172466667 0,9.13804286 0,20.1724667 C0,24.360181 1.32493854,28.2234429 3.53163686,31.4373476 L0.0894085282,38.8183 C-0.0790655723,39.1809188 -0.00287470241,39.6100092 0.280178237,39.8926733 C0.563231177,40.1753374 0.992911718,40.2514236 1.35602934,40.083181 L8.74713434,36.645681 C11.9628792,38.8436333 15.8399959,40.1724667 20.0275103,40.1724667 C31.0771026,40.1724667 40.0550206,31.2068952 40.0550206,20.1724667 C40.0550206,9.13804286 31.0771026,0.172466667 20.0275103,0.172466667 Z M20.0275103,2.07722857 C30.0462771,2.07722857 38.1476387,10.1674524 38.1476387,20.1724667 C38.1476387,30.1774667 30.0462771,38.2677048 20.0275103,38.2677048 C16.0389,38.2677048 12.3651212,36.9777286 9.37299404,34.8004429 C9.09072915,34.5961546 8.71934453,34.5619201 8.40440165,34.7111571 L2.92067859,37.2558 L5.46882164,31.7796095 C5.61826401,31.4650993 5.58398235,31.0942248 5.37941311,30.8123476 C3.19912392,27.8243476 1.90738193,24.1556095 1.90738193,20.1724667 C1.90738193,10.1674524 10.0087435,2.07722857 20.0275103,2.07722857 Z M20.0275103,5.88675238 C14.7746735,5.88675238 10.4906006,10.1252381 10.4906006,15.3361571 C10.4906006,18.3673667 11.6305966,20.0414667 12.5917011,21.333181 C13.5528055,22.6248476 14.3053645,23.5115143 14.3053645,25.8867524 C14.3054171,26.4127161 14.7323683,26.8391333 15.2590555,26.8391333 L24.7959652,26.8391333 C25.3226523,26.8391333 25.7496035,26.4127161 25.7496561,25.8867524 C25.7496561,23.5115143 26.5022151,22.6248476 27.4633196,21.333181 C28.4244241,20.0414667 29.56442,18.3673667 29.56442,15.3361571 C29.56442,10.1252381 25.2803472,5.88675238 20.0275103,5.88675238 Z M20.0275103,7.79151429 C24.2585455,7.79151429 27.6570381,11.1634571 27.6570381,15.3361571 C27.6570381,17.937981 26.889652,18.9304476 25.9433746,20.2022286 C25.115289,21.3151333 24.1644596,22.7130381 23.9316827,24.9343714 L20.9812013,24.9343714 L20.9812013,17.6278238 C22.0860313,17.2309329 22.8885832,16.1667348 22.8885832,14.9343714 C22.8885832,13.3677048 21.5963382,12.0772286 20.0275103,12.0772286 C18.4586825,12.0772286 17.1664374,13.3677048 17.1664374,14.9343714 C17.1664374,16.1667348 17.9689893,17.2309329 19.0738193,17.6278238 L19.0738193,24.9343714 L16.1233379,24.9343714 C15.890561,22.7130381 14.9397316,21.3151333 14.111646,20.2022286 C13.1653686,18.9304476 12.3979826,17.937981 12.3979826,15.3361571 C12.3979826,11.1634571 15.7964751,7.79151429 20.0275103,7.79151429 Z M20.0275103,13.9819905 C20.5655184,13.9819905 20.9812013,14.3971048 20.9812013,14.9343714 C20.9812013,15.4716429 20.5655184,15.8867524 20.0275103,15.8867524 C19.4895022,15.8867524 19.0738193,15.4716429 19.0738193,14.9343714 C19.0738193,14.3971048 19.4895022,13.9819905 20.0275103,13.9819905 Z M15.8849152,28.7438952 C15.5441456,28.7597787 15.2377552,28.9560277 15.0811852,29.2587 C14.9246151,29.5613723 14.9416588,29.924472 15.1258946,30.211191 C15.3101303,30.4979099 15.6335605,30.6646767 15.9743237,30.6486571 L24.0806969,30.6486571 C24.4246313,30.6535133 24.7445414,30.4730601 24.9179277,30.1763963 C25.091314,29.8797325 25.091314,29.5128199 24.9179277,29.2161561 C24.7445414,28.9194923 24.4246313,28.739039 24.0806969,28.7438952 L15.9743237,28.7438952 C15.9445372,28.7424995 15.9147016,28.7424995 15.8849152,28.7438952 L15.8849152,28.7438952 Z M17.7922971,32.553419 C17.4515275,32.5693025 17.1451371,32.7655515 16.9885671,33.0682238 C16.8319971,33.3708961 16.8490408,33.7339958 17.0332765,34.0207148 C17.2175123,34.3074337 17.5409424,34.4742005 17.8817056,34.458181 L22.173315,34.458181 C22.5172494,34.4630371 22.8371594,34.2825839 23.0105457,33.9859201 C23.1839321,33.6892563 23.1839321,33.3223437 23.0105457,33.0256799 C22.8371594,32.7290161 22.5172494,32.5485629 22.173315,32.553419 L17.8817056,32.553419 C17.8519192,32.5520233 17.8220836,32.5520233 17.7922971,32.553419 Z"/></g></g></g></g></g></svg>