<svg xmlns="http://www.w3.org/2000/svg" xmlns:xlink="http://www.w3.org/1999/xlink" width="12" height="25" version="1.1" viewBox="0 0 12 25"><g id="My-Plan-Icons" fill="none" fill-rule="evenodd" stroke="none" stroke-width="1"><g id="Day-Plan--Tab1" fill="#418AD0" fill-rule="nonzero" transform="translate(-312.000000, -344.000000)"><g id="Group-8" transform="translate(150.000000, 329.000000)"><g id="Group-6" transform="translate(162.000000, 15.000000)"><g id="Group-3"><g id="noun_warm-up_1469749"><g id="Group"><path id="Shape" d="M2.75480702,7.59361111 C4.03312281,7.59361111 5.07284211,6.56444444 5.07284211,5.29972222 C5.07284211,4.035 4.03284211,3.00555556 2.75480702,3.00555556 C1.47677193,3.00555556 0.43677193,4.03472222 0.43677193,5.29972222 C0.43677193,6.56472222 1.47677193,7.59361111 2.75480702,7.59361111 Z M2.75480702,4.18611111 C3.37515789,4.18611111 3.87985965,4.68555556 3.87985965,5.29944444 C3.87985965,5.91333333 3.37515789,6.41277778 2.75480702,6.41277778 C2.13445614,6.41277778 1.62975439,5.91333333 1.62975439,5.29944444 C1.62975439,4.68555556 2.13445614,4.18611111 2.75480702,4.18611111 Z"/><path id="Shape" d="M11.701614,22.9336111 C11.7013333,22.9313889 11.7007719,22.9294444 11.7004912,22.9272222 C11.7002105,22.925 11.7002105,22.9227778 11.6996491,22.9208333 L10.6094035,16.2111111 C10.6094035,16.2111111 10.6094035,16.2111111 10.6094035,16.2108333 C10.6094035,16.2108333 10.6094035,16.2105556 10.6094035,16.2105556 C10.6012632,16.1611111 10.5942456,16.0955556 10.5903158,16.0305556 C10.5903158,16.0305556 10.5903158,16.0305556 10.5903158,16.0302778 C10.4095439,13.1880556 9.9194386,10.3575 9.13403509,7.6175 C9.13403509,7.6175 9.13403509,7.6175 9.13403509,7.6175 C9.11747368,7.56 9.11466667,7.49777778 9.12449123,7.40944444 C9.12449123,7.40944444 9.12449123,7.40916667 9.12449123,7.40916667 C9.12449123,7.40916667 9.12449123,7.40888889 9.12449123,7.40888889 L9.45684211,4.38361111 C9.45684211,4.38361111 9.45684211,4.38361111 9.45684211,4.38333333 C9.45684211,4.38305556 9.45684211,4.38305556 9.45684211,4.38277778 L9.45684211,4.38277778 C9.45684211,4.38277778 9.45684211,4.38277778 9.45684211,4.38277778 C9.53263158,3.69777778 9.38610526,3.02166667 9.03354386,2.42666667 C8.68154386,1.83305556 8.15663158,1.37611111 7.51607018,1.10527778 L5.14947368,0.105277778 C5.14919298,0.105 5.14891228,0.105 5.14835088,0.105 C5.13936842,0.101388889 5.13010526,0.0983333333 5.12084211,0.095 C5.11045614,0.0913888889 5.10035088,0.0872222222 5.08996491,0.0838888889 C5.08968421,0.0838888889 5.08940351,0.0836111111 5.08912281,0.0836111111 C4.30933333,-0.151944444 3.51747368,0.200833333 3.20645614,0.921944444 C2.89487719,1.64416667 3.19522807,2.49666667 3.88940351,2.87138889 C3.89192982,2.87277778 3.89473684,2.87444444 3.89726316,2.87583333 C3.89950877,2.87694444 3.90175439,2.87833333 3.904,2.87972222 C3.91747368,2.88694444 3.93122807,2.89333333 3.94526316,2.89916667 C3.94638596,2.89972222 3.94750877,2.90027778 3.94863158,2.90083333 L6.30175439,3.90083333 C6.30203509,3.90083333 6.30203509,3.90083333 6.30231579,3.90111111 C6.30259649,3.90111111 6.30259649,3.90138889 6.30287719,3.90138889 C6.36322807,3.92694444 6.40252632,3.98694444 6.39607018,4.04416667 C6.39607018,4.04444444 6.39607018,4.04444444 6.39607018,4.04472222 C6.39607018,4.04472222 6.39607018,4.045 6.39607018,4.045 L6.0637193,7.08305556 C6.0637193,7.08305556 6.0637193,7.08305556 6.0637193,7.08305556 C6.05866667,7.12972222 6.02385965,7.16888889 5.97754386,7.18055556 C5.97754386,7.18055556 5.97754386,7.18055556 5.97754386,7.18055556 L4.34385965,7.58805556 C4.34357895,7.58805556 4.34329825,7.58833333 4.34329825,7.58833333 C4.34301754,7.58833333 4.34273684,7.58833333 4.34245614,7.58861111 C4.10077193,7.64944444 3.8725614,7.75944444 3.68308772,7.90638889 C3.68308772,7.90638889 3.68308772,7.90638889 3.68280702,7.90666667 C3.68280702,7.90666667 3.68252632,7.90666667 3.68252632,7.90694444 L1.0237193,9.9725 C1.0237193,9.9725 1.0234386,9.97277778 1.0234386,9.97277778 C-0.0426666667,10.8002778 -0.245614035,12.3363889 0.57122807,13.3983333 C0.57122807,13.3986111 0.571508772,13.3986111 0.571508772,13.3988889 L0.571789474,13.3994444 C0.571789474,13.3994444 0.571789474,13.3994444 0.571789474,13.3997222 C0.571789474,13.3997222 0.571789474,13.3997222 0.571789474,13.3997222 L2.63185965,16.0827778 C2.63270175,16.0838889 2.63382456,16.0847222 2.63466667,16.0858333 C2.63578947,16.0872222 2.63635088,16.0886111 2.63747368,16.0897222 C2.85445614,16.3636111 3.1525614,16.5425 3.47564912,16.6194444 L1.18035088,22.5666667 C1.17922807,22.5697222 1.17866667,22.5725 1.17754386,22.5755556 C1.17642105,22.5786111 1.17501754,22.5811111 1.17389474,22.5841667 C1.01698246,23.0325 1.04336842,23.5166667 1.248,23.9469444 C1.45263158,24.3772222 1.81277193,24.7058333 2.26217544,24.8716667 C2.47550877,24.9505556 2.69361404,24.9880556 2.90722807,24.9880556 C3.62975439,24.9880556 4.3045614,24.5597222 4.59115789,23.8522222 C4.592,23.8502778 4.5922807,23.8486111 4.59312281,23.8466667 C4.59424561,23.8441667 4.59536842,23.8416667 4.59649123,23.8388889 L7.07929825,17.2566667 L8.10189474,23.5030556 C8.10217544,23.5052778 8.10301754,23.5075 8.10329825,23.51 C8.10357895,23.5119444 8.10385965,23.5141667 8.10414035,23.5161111 C8.1917193,23.9841667 8.45866667,24.3916667 8.85614035,24.6633333 C9.16631579,24.8755556 9.52898246,24.9863889 9.90063158,24.9863889 C9.9994386,24.9863889 10.0990877,24.9786111 10.1984561,24.9627778 C11.178386,24.8063889 11.8385965,23.915 11.701614,22.9336111 Z M3.44870175,12.1055556 C3.44870175,12.1055556 3.44870175,12.1055556 3.44870175,12.1055556 C3.41473684,12.0616667 3.4085614,11.9955556 3.46189474,11.9541667 L4.28182456,11.3205556 C4.55101754,12.0019444 4.6405614,12.7755556 4.54680702,13.5272222 L3.44870175,12.1055556 Z M10.0084211,23.7975 C9.66736842,23.8519444 9.34035088,23.6305556 9.27803509,23.3036111 L7.89726316,14.8683333 C7.89642105,14.8627778 7.89473684,14.8575 7.89389474,14.8522222 C7.89164912,14.8402778 7.88912281,14.8283333 7.88603509,14.8166667 C7.88378947,14.8077778 7.88098246,14.7991667 7.87817544,14.7902778 C7.87536842,14.7811111 7.8725614,14.7716667 7.86919298,14.7625 C7.86554386,14.7525 7.86133333,14.7427778 7.85712281,14.7330556 C7.85375439,14.7255556 7.85066667,14.7177778 7.84701754,14.7102778 C7.84224561,14.7002778 7.83691228,14.6905556 7.83157895,14.6808333 C7.82764912,14.6736111 7.8237193,14.6666667 7.81950877,14.6597222 C7.81417544,14.6508333 7.8082807,14.6419444 7.80238596,14.6333333 C7.79733333,14.6258333 7.7922807,14.6183333 7.78666667,14.6111111 C7.78105263,14.6036111 7.7754386,14.5966667 7.76954386,14.5894444 C7.76280702,14.5813889 7.75607018,14.5733333 7.74905263,14.5658333 C7.7437193,14.56 7.73838596,14.5544444 7.73277193,14.5488889 C7.72463158,14.5405556 7.71621053,14.5325 7.70722807,14.5244444 C7.70217544,14.52 7.69684211,14.5155556 7.69150877,14.5111111 C7.68196491,14.5033333 7.67242105,14.4955556 7.66231579,14.4880556 C7.65670175,14.4838889 7.65080702,14.48 7.64519298,14.4761111 C7.63536842,14.4694444 7.62526316,14.4627778 7.61487719,14.4566667 C7.60757895,14.4525 7.6002807,14.4486111 7.59298246,14.4444444 C7.5837193,14.4394444 7.57445614,14.4344444 7.56491228,14.43 C7.55508772,14.4252778 7.54526316,14.4213889 7.53515789,14.4172222 C7.52898246,14.4147222 7.52308772,14.4116667 7.51663158,14.4094444 C7.51466667,14.4088889 7.51298246,14.4083333 7.51101754,14.4077778 C7.49978947,14.4038889 7.4885614,14.4005556 7.47705263,14.3972222 C7.46919298,14.395 7.46161404,14.3925 7.45375439,14.3905556 C7.44364912,14.3880556 7.43354386,14.3863889 7.4234386,14.3841667 C7.41389474,14.3822222 7.40463158,14.3802778 7.39508772,14.3786111 C7.38750877,14.3775 7.37992982,14.3769444 7.37207018,14.3761111 C7.3597193,14.3747222 7.34764912,14.3733333 7.33529825,14.3727778 C7.32968421,14.3725 7.32435088,14.3727778 7.31873684,14.3727778 C7.30414035,14.3725 7.28982456,14.3725 7.27550877,14.3730556 C7.27073684,14.3733333 7.26568421,14.3738889 7.26063158,14.3744444 C7.24575439,14.3755556 7.23087719,14.3769444 7.2162807,14.3791667 C7.21487719,14.3794444 7.21347368,14.3794444 7.21207018,14.3797222 C7.20701754,14.3805556 7.20224561,14.3819444 7.19719298,14.3827778 C7.1842807,14.3852778 7.17164912,14.3877778 7.15901754,14.3908333 C7.15059649,14.3930556 7.14217544,14.3955556 7.13403509,14.3980556 C7.12421053,14.4011111 7.11438596,14.4038889 7.1045614,14.4075 C7.09473684,14.4111111 7.08519298,14.415 7.07564912,14.4188889 C7.06778947,14.4222222 7.05964912,14.4255556 7.05207018,14.4291667 C7.04196491,14.4338889 7.03242105,14.4388889 7.02287719,14.4441667 C7.01557895,14.4480556 7.0082807,14.4519444 7.00126316,14.4561111 C6.992,14.4616667 6.98329825,14.4672222 6.97459649,14.4730556 C6.96729825,14.4780556 6.9597193,14.4830556 6.95270175,14.4883333 C6.94512281,14.4938889 6.93754386,14.5 6.93024561,14.5058333 C6.92238596,14.5122222 6.91452632,14.5186111 6.90694737,14.5252778 C6.90077193,14.5308333 6.89487719,14.5366667 6.88898246,14.5425 C6.88112281,14.5502778 6.87326316,14.5580556 6.86568421,14.5663889 C6.86063158,14.5719444 6.85557895,14.5777778 6.85080702,14.5836111 C6.84322807,14.5925 6.83592982,14.6013889 6.82919298,14.6105556 C6.82442105,14.6169444 6.81992982,14.6233333 6.8154386,14.63 C6.80926316,14.6388889 6.80308772,14.6480556 6.79747368,14.6575 C6.79242105,14.6655556 6.78792982,14.6741667 6.7834386,14.6825 C6.77894737,14.6905556 6.77445614,14.6986111 6.77052632,14.7069444 C6.76519298,14.7180556 6.76042105,14.7291667 6.75592982,14.7405556 C6.75396491,14.7455556 6.7514386,14.7502778 6.74947368,14.7555556 L3.48322807,23.415 C3.35410526,23.7308333 3.00154386,23.885 2.67957895,23.7658333 C2.36014035,23.6477778 2.19087719,23.2933333 2.30035088,22.9741667 L5.21207018,15.4305556 C5.60898246,14.6202778 5.80350877,13.6975 5.77375439,12.7594444 C5.74315789,11.7908333 5.47508772,10.8722222 4.99845614,10.1025 C4.99789474,10.1016667 4.99733333,10.1011111 4.99705263,10.1005556 C4.9914386,10.0916667 4.98526316,10.0833333 4.97908772,10.0747222 C4.97319298,10.0663889 4.96757895,10.0577778 4.96140351,10.05 C4.96084211,10.0491667 4.9605614,10.0486111 4.96,10.0477778 C4.95607018,10.0427778 4.95157895,10.0383333 4.94736842,10.0333333 C4.93894737,10.0233333 4.93080702,10.0133333 4.92182456,10.0041667 C4.91677193,9.99888889 4.9114386,9.99416667 4.90610526,9.98916667 C4.89712281,9.98055556 4.88814035,9.97166667 4.87887719,9.96361111 C4.87242105,9.95805556 4.86568421,9.95333333 4.85894737,9.94805556 C4.85024561,9.94138889 4.84182456,9.93444444 4.83284211,9.92833333 C4.82498246,9.92277778 4.8165614,9.91777778 4.80842105,9.91277778 C4.8002807,9.90777778 4.79242105,9.9025 4.7842807,9.89777778 C4.77529825,9.89277778 4.76575439,9.88833333 4.75649123,9.88361111 C4.74863158,9.87972222 4.74105263,9.87555556 4.73291228,9.87222222 C4.72336842,9.86805556 4.71354386,9.86444444 4.7037193,9.86083333 C4.69557895,9.85777778 4.6874386,9.85444444 4.67929825,9.85166667 C4.66975439,9.84861111 4.66021053,9.84611111 4.65066667,9.84333333 C4.64168421,9.84083333 4.63298246,9.83805556 4.624,9.83611111 C4.61501754,9.83416667 4.60575439,9.8325 4.59677193,9.83111111 C4.58694737,9.82944444 4.57712281,9.8275 4.56729825,9.82611111 C4.55887719,9.825 4.55045614,9.82444444 4.54203509,9.82388889 C4.53136842,9.82305556 4.52070175,9.82194444 4.50975439,9.82138889 C4.50189474,9.82111111 4.49375439,9.82138889 4.48589474,9.82138889 C4.47466667,9.82138889 4.4634386,9.82138889 4.45221053,9.82222222 C4.44407018,9.82277778 4.43621053,9.82388889 4.42835088,9.82472222 C4.41740351,9.82583333 4.40617544,9.82694444 4.39522807,9.82861111 C4.38652632,9.83 4.37782456,9.83194444 4.36940351,9.83388889 C4.35929825,9.83583333 4.34919298,9.83777778 4.33908772,9.84055556 C4.32898246,9.84305556 4.31915789,9.84638889 4.30933333,9.84972222 C4.30091228,9.8525 4.29221053,9.85472222 4.28378947,9.85777778 C4.2725614,9.86194444 4.26133333,9.86694444 4.25010526,9.87166667 C4.24308772,9.87472222 4.23635088,9.87722222 4.22933333,9.88055556 C4.21782456,9.88611111 4.20631579,9.89277778 4.19508772,9.89916667 C4.18947368,9.90222222 4.18385965,9.905 4.17824561,9.90833333 C4.17740351,9.90888889 4.17684211,9.90944444 4.176,9.90972222 C4.16701754,9.91527778 4.15859649,9.92138889 4.14989474,9.92722222 C4.14147368,9.93305556 4.13277193,9.93861111 4.12491228,9.94472222 C4.12407018,9.94527778 4.12350877,9.94583333 4.12266667,9.94638889 L2.72673684,11.0252778 C2.72673684,11.0252778 2.72645614,11.0255556 2.72645614,11.0255556 C2.72645614,11.0255556 2.72617544,11.0258333 2.72617544,11.0258333 C2.16112281,11.4638889 2.06175439,12.2527778 2.49992982,12.8216667 C2.49992982,12.8216667 2.50021053,12.8219444 2.50021053,12.8219444 C2.50021053,12.8219444 2.50049123,12.8222222 2.50049123,12.8222222 L4.09515789,14.8869444 C4.09515789,14.8869444 4.09515789,14.8872222 4.0954386,14.8872222 C4.11733333,14.9158333 4.12098246,14.9502778 4.10582456,14.9897222 C4.10582456,14.9897222 4.10582456,14.9897222 4.10582456,14.99 L4.10385965,14.9947222 C4.10385965,14.995 4.10357895,14.995 4.10357895,14.9952778 L3.91831579,15.4752778 C3.7914386,15.5016667 3.65614035,15.4619444 3.57754386,15.3633333 L1.52168421,12.6858333 C1.52168421,12.6858333 1.52140351,12.6855556 1.52140351,12.6855556 C1.52140351,12.6855556 1.52112281,12.6852778 1.52112281,12.6852778 C1.09642105,12.1338889 1.20392982,11.3341667 1.7602807,10.9027778 C1.7602807,10.9027778 1.7602807,10.9027778 1.7605614,10.9025 C1.7605614,10.9025 1.76084211,10.9025 1.76084211,10.9022222 L4.41936842,8.83694444 C4.4794386,8.79027778 4.55494737,8.75472222 4.63747368,8.73388889 C4.63747368,8.73388889 4.63747368,8.73388889 4.63747368,8.73388889 L6.27115789,8.32638889 C6.2714386,8.32638889 6.2714386,8.32638889 6.2717193,8.32611111 C6.272,8.32611111 6.2722807,8.32611111 6.2725614,8.32583333 C6.79803509,8.19333333 7.19101754,7.74611111 7.24996491,7.21305556 C7.24996491,7.21305556 7.24996491,7.21277778 7.24996491,7.21277778 C7.24996491,7.2125 7.24996491,7.2125 7.24996491,7.21222222 L7.58231579,4.17416667 C7.58231579,4.17416667 7.58231579,4.17416667 7.58231579,4.17416667 C7.58231579,4.17416667 7.58231579,4.17388889 7.58231579,4.17388889 L7.58231579,4.17333333 C7.58231579,4.17333333 7.58231579,4.17305556 7.58231579,4.17305556 C7.64491228,3.60361111 7.3125614,3.04666667 6.77333333,2.81805556 C6.77305263,2.81805556 6.77277193,2.81777778 6.77249123,2.81777778 L4.45024561,1.83111111 C4.29782456,1.74194444 4.23326316,1.55055556 4.3037193,1.3875 C4.38007018,1.21027778 4.56224561,1.17055556 4.71747368,1.20861111 L7.04729825,2.19305556 C7.87705263,2.54361111 8.3685614,3.37277778 8.27059649,4.25666667 C8.27059649,4.25666667 8.27059649,4.25694444 8.27059649,4.25694444 C8.27059649,4.25694444 8.27059649,4.25694444 8.27059649,4.25722222 L7.93824561,7.28305556 C7.93824561,7.28333333 7.93824561,7.28333333 7.93824561,7.28361111 C7.91157895,7.52527778 7.92673684,7.73416667 7.98596491,7.94083333 C7.98596491,7.94111111 7.98596491,7.94111111 7.98596491,7.94138889 C8.74835088,10.6005556 9.22385965,13.3475 9.39929825,16.1061111 C9.39929825,16.1061111 9.39929825,16.1061111 9.39929825,16.1063889 C9.40575439,16.2091667 9.41726316,16.3133333 9.43129825,16.4002778 C9.43129825,16.4002778 9.43129825,16.4002778 9.43129825,16.4002778 L9.43129825,16.4002778 C9.43129825,16.4002778 9.43129825,16.4005556 9.43129825,16.4005556 C9.43129825,16.4005556 9.43129825,16.4005556 9.43129825,16.4005556 L10.5195789,23.0988889 C10.5661754,23.4369444 10.3418947,23.7441667 10.0084211,23.7975 Z"/></g></g></g></g></g></g></g></svg>