<svg xmlns="http://www.w3.org/2000/svg" xmlns:xlink="http://www.w3.org/1999/xlink" width="43" height="25" version="1.1" viewBox="0 0 43 25"><g id="My-Plan-Icons" fill="none" fill-rule="evenodd" stroke="none" stroke-width="1"><g id="Day-Plan--Tab1" fill="#418AD0" transform="translate(-448.000000, -344.000000)"><g id="Group-8" transform="translate(150.000000, 329.000000)"><g id="Group-7" transform="translate(298.000000, 15.000000)"><g id="ICONS-HowWhy-07"><g id="dumbbell"><path id="Shape" d="M42.3643247,8.7433537 L39.3523209,8.7433537 L39.3523209,4.9035453 C39.3523209,3.74337324 38.5731169,2.79946823 37.6151949,2.79946823 L35.5735427,2.79946823 C35.4119574,2.79946823 35.255999,2.82835809 35.1075152,2.87861017 L35.1075152,2.10407707 C35.1075152,0.943905004 34.3283112,0 33.3703892,0 L29.9977578,0 C29.0399198,0 28.2606318,0.943803279 28.2606318,2.10407707 L28.2606318,8.7433537 L14.7391163,8.7433537 L14.7391163,2.10407707 C14.7391163,0.943905004 13.9599123,0 13.0019902,0 L9.62935887,0 C8.67152081,0 7.89223284,0.943803279 7.89223284,2.10407707 L7.89223284,2.87861017 C7.74366506,2.82835809 7.58779067,2.79946823 7.42620537,2.79946823 L5.38472115,2.79946823 C4.4268831,2.79946823 3.64759513,3.74327151 3.64759513,4.9035453 L3.64759513,8.7433537 L0.635507283,8.7433537 C0.284453967,8.7433537 0,9.08799754 0,9.51310574 L0,15.4805914 C0,15.9056996 0.284453967,16.2503434 0.635507283,16.2503434 L3.64759513,16.2503434 L3.64759513,20.0901518 C3.64759513,21.2503239 4.42679911,22.1942289 5.38472115,22.1942289 L7.42628935,22.1942289 C7.58787466,22.1942289 7.74383303,22.1652373 7.89231683,22.115087 L7.89231683,22.8896201 C7.89231683,24.0497921 8.67152081,24.9936971 9.62944285,24.9936971 L13.0020742,24.9936971 C13.9599123,24.9936971 14.7392002,24.0497921 14.7392002,22.8896201 L14.7392002,16.2503434 L28.2607998,16.2503434 L28.2607998,22.8896201 C28.2607998,24.0497921 29.0400877,24.9936971 29.9979258,24.9936971 L33.3705571,24.9936971 C34.3283952,24.9936971 35.1076832,24.0498938 35.1076832,22.8896201 L35.1076832,22.115087 C35.256251,22.165339 35.4121253,22.1942289 35.5737106,22.1942289 L37.6153628,22.1942289 C38.5732009,22.1942289 39.3524889,21.2504256 39.3524889,20.0901518 L39.3524889,16.2503434 L42.3644927,16.2503434 C42.715546,16.2503434 43,15.9056996 43,15.4805914 L43,9.51310574 C42.999832,9.08799754 42.7153781,8.7433537 42.3643247,8.7433537 Z M3.64759513,14.7108393 L1.27109855,14.7108393 L1.27109855,10.2828578 L3.64759513,10.2828578 L3.64759513,14.7108393 Z M7.89231683,20.0902536 C7.89231683,20.4014299 7.68328053,20.6547248 7.42628935,20.6547248 L5.38472115,20.6547248 C5.12781395,20.6547248 4.91869368,20.4015316 4.91869368,20.0902536 L4.91869368,15.4805914 L4.91869368,9.51310574 L4.91869368,4.90344357 C4.91869368,4.59216549 5.12781395,4.33897231 5.38472115,4.33897231 L7.42628935,4.33897231 C7.68328053,4.33897231 7.89231683,4.59216549 7.89231683,4.90344357 L7.89231683,20.0902536 Z M13.4680177,9.51320747 L13.4680177,15.4806931 L13.4680177,22.8896201 C13.4680177,23.2008981 13.2588974,23.4540913 13.0019902,23.4540913 L9.62935887,23.4540913 C9.37245167,23.4540913 9.16333139,23.2008981 9.16333139,22.8896201 L9.16333139,20.0901518 L9.16333139,4.90344357 L9.16333139,2.10407707 C9.16333139,1.79279899 9.37245167,1.5396058 9.62935887,1.5396058 L13.0019902,1.5396058 C13.2588974,1.5396058 13.4680177,1.79279899 13.4680177,2.10407707 L13.4680177,9.51320747 Z M28.2606318,14.7108393 L14.7391163,14.7108393 L14.7391163,10.2828578 L28.2606318,10.2828578 L28.2606318,14.7108393 Z M33.8365006,4.90334185 L33.8365006,20.0901518 L33.8365006,22.8897218 C33.8365006,23.2009999 33.6273804,23.4541931 33.3704732,23.4541931 L29.9978418,23.4541931 C29.7409346,23.4541931 29.5318143,23.2009999 29.5318143,22.8897218 L29.5318143,15.4806931 L29.5318143,9.51320747 L29.5318143,2.10417879 C29.5318143,1.79290071 29.7409346,1.53970753 29.9978418,1.53970753 L33.3704732,1.53970753 C33.6273804,1.53970753 33.8365006,1.79290071 33.8365006,2.10417879 L33.8365006,4.90334185 Z M38.0813063,9.51310574 L38.0813063,15.4805914 L38.0813063,20.0902536 C38.0813063,20.4015316 37.872186,20.6547248 37.6152788,20.6547248 L35.5736267,20.6547248 C35.3167195,20.6547248 35.1075992,20.4015316 35.1075992,20.0902536 L35.1075992,4.90344357 C35.1075992,4.59216549 35.3167195,4.33897231 35.5736267,4.33897231 L37.6152788,4.33897231 C37.872186,4.33897231 38.0813063,4.59216549 38.0813063,4.90344357 L38.0813063,9.51310574 Z M41.7287335,14.7108393 L39.3523209,14.7108393 L39.3523209,10.2828578 L41.7287335,10.2828578 L41.7287335,14.7108393 Z"/></g></g></g></g></g></g></svg>